/* XPM */
static char *_a3d2285eec6440b8fe2c35ef56016170BIKPGIGv5AMT4Qi[] = {
/* columns rows colors chars-per-pixel */
"30 32 173 2 ",
"   c None",
".  c #000001",
"X  c #010904",
"o  c #090505",
"O  c #110908",
"+  c #1A0E0C",
"@  c #041F0B",
"#  c #031406",
"$  c #29170E",
"%  c #331D0F",
"&  c #2B1C13",
"*  c #331C16",
"=  c #07270D",
"-  c #162E0D",
";  c #14320D",
":  c #062F10",
">  c #1C2112",
",  c #083E15",
"<  c #0B380B",
"1  c #2A2312",
"2  c #3A2113",
"3  c #392815",
"4  c #393126",
"5  c #4C2B17",
"6  c #452719",
"7  c #502D16",
"8  c #583219",
"9  c #4E371B",
"0  c #703F1F",
"q  c #5D3420",
"w  c #4C3725",
"e  c #663A20",
"r  c #17420F",
"t  c #114515",
"y  c #0C591E",
"u  c #165919",
"i  c #0A4C1A",
"p  c #29581A",
"a  c #2E5E21",
"s  c #0F6823",
"d  c #127C29",
"f  c #1B772A",
"g  c #0F7527",
"h  c #366526",
"j  c #217E30",
"k  c #296D27",
"l  c #404001",
"z  c #4C4119",
"x  c #49541C",
"c  c #72411F",
"v  c #554826",
"b  c #5A5022",
"n  c #564733",
"m  c #654C23",
"M  c #694F21",
"N  c #724120",
"B  c #7E4E27",
"V  c #6B5021",
"C  c #7F5028",
"Z  c #7A5C31",
"A  c #69473A",
"S  c #52732A",
"D  c #606723",
"F  c #21394F",
"G  c #5E5851",
"H  c #655341",
"J  c #4B6E46",
"K  c #717D56",
"L  c #52516F",
"P  c #626263",
"I  c #86552B",
"U  c #8A5C34",
"Y  c #8C5E3B",
"T  c #977F3C",
"R  c #966B30",
"E  c #A4773C",
"W  c #8F6340",
"Q  c #956D4C",
"!  c #9E734D",
"~  c #A47B41",
"^  c #A77C49",
"/  c #A37B56",
"(  c #1C8529",
")  c #278625",
"_  c #2E9429",
"`  c #359A29",
"'  c #399E29",
"]  c #238032",
"[  c #348D2B",
"{  c #51891F",
"}  c #6CAE19",
"|  c #509E2D",
" . c #569230",
".. c #679432",
"X. c #41A429",
"o. c #75A829",
"O. c #9F9A14",
"+. c #BEA70F",
"@. c #BFBF00",
"#. c #B9A010",
"$. c #8F843C",
"%. c #B19128",
"&. c #AD8A37",
"*. c #B28B36",
"=. c #BB9C31",
"-. c #BB953A",
";. c #C3A62B",
":. c #C5AB29",
">. c #CEB529",
",. c #C9B027",
"<. c #D2BD21",
"1. c #D8BA2B",
"2. c #C6A536",
"3. c #E5BF3E",
"4. c #8AC719",
"5. c #DACA1A",
"6. c #E7D915",
"7. c #DAEB06",
"8. c #FFFE00",
"9. c #F5F008",
"0. c #EDE310",
"q. c #F6EA14",
"w. c #F5E519",
"e. c #F0D926",
"r. c #B58947",
"t. c #BF9249",
"y. c #A9805C",
"u. c #B08952",
"i. c #8E826B",
"p. c #B38D68",
"a. c #BD9770",
"s. c #B99976",
"d. c #B3956A",
"f. c #C59346",
"g. c #C3A351",
"h. c #DEAD51",
"j. c #E5BE40",
"k. c #C29C69",
"l. c #C7A476",
"z. c #BFEE40",
"x. c #31529C",
"c. c #4A5B88",
"v. c #54679B",
"b. c #7080A6",
"n. c #40CBBF",
"m. c #00BAFF",
"M. c #9B9299",
"N. c #BDA380",
"B. c #AAA29F",
"V. c #B4AB91",
"C. c #8B97AC",
"Z. c #98A2BC",
"A. c #ADAFA3",
"S. c #D5B48B",
"D. c #DABA8D",
"F. c #DDBE92",
"G. c #CFB896",
"H. c #CDBDA8",
"J. c #B4C6B4",
"K. c #DFC097",
"L. c #E2C499",
"P. c #DCC5A6",
"I. c #EBCEA5",
"U. c #F2D7AE",
"Y. c #F6DBB2",
"T. c #F8DEB5",
"R. c #FEE5BC",
"E. c #FAE0B7",
"W. c #D2D1D1",
"Q. c #FFEFD4",
"!. c #FFF2DB",
"~. c #FFF7EB",
"^. c #E8F2EA",
/* pixels */
"                                                            ",
"                                                            ",
"                                                            ",
"                                                            ",
"                    X s d d d d = X                         ",
"                  . d ` X.X.X.X.( , .                       ",
"                @ g d d d d d d d g y .                     ",
"              : u _ _ _ _ _ _ _ _ _ ) i .                   ",
"            . t [ ..4.4.o.....4.o... .) .                   ",
"            # p ..~ 8.9.<.&.~ 8.:.&.$.| #                   ",
"          . y S ~ ~ 8.=.<.6.~ 8.8.<.~ ~ d @ .               ",
"      u.S.0 N E 3.8.h.q.<.=.8.h.r.<.6.~ N c / l.~           ",
"    I ! U.S.^ :.6.;.w.>.*.=.8.r.k.g.,.6.R l.L.S.I           ",
"      W s.I.^ %.>.t.8.5.2.-.+.d.F.l.-.e.~ D.S.p.c           ",
"        N A.T R ~ h.q.0.1.r.Y K.Y.S.u.f.=.V.i.c             ",
"          m.z.#.U h.h.r.U Y S.R.R.I.a.N 8.n.m.              ",
"          . @.<.Z . ~ C / L.R.S.Y 2 & ~ 8.l .               ",
"          . *.*.Q W.c.A p.T.R.U L C.A.B j.3 .               ",
"            v 9 H !.x.M.P.R.R.V.v.Z.H.% m 1                 ",
"            . . 4 L.b.W.Q.R.R.~.Z.B.d.. .                   ",
"              X 1 E Y.E.E.E.E.E.Y.l.Z X                     ",
"            . , k N N a.S.S.S.S.Y N b d .                   ",
"          . F C.J.r f j ] ] ] ] f u J ^.6 O                 ",
"        . 6 n G G z d d d d d d d a v P e 5 $               ",
"        . Q / n - D h h { } } h h S x # y.! w .             ",
"        . s.G.K u ' V m O.7.7.m M S ) < P.N.H .             ",
"          . . . @ d X.( d d d d ` _ y . . . .               ",
"              . . . d ` X.X.X.X.( , . .                     ",
"            . % 5 * = ; ; ; ; ; = > 2 7 .                   ",
"            . 2 e q $ o . . . . + 6 e N .                   ",
"            . % 8 8 2 O       . & 5 8 8 .                   ",
"              . . . .           . . . .                     "
};
