/* XPM */
static char *_66a22faf31246c6d9c370caa7360011eIPTmTDdpqa0wDuj[] = {
/* columns rows colors chars-per-pixel */
"30 32 213 2 ",
"   c None",
".  c #000001",
"X  c #010602",
"o  c #010904",
"O  c #020E04",
"+  c #100907",
"@  c #170D09",
"#  c #190E08",
"$  c #1A0F08",
"%  c #031104",
"&  c #041E0A",
"*  c #041F0B",
"=  c #1B1008",
"-  c #1A1209",
";  c #1D1009",
":  c #1A110C",
">  c #1D150D",
",  c #28170B",
"<  c #271F0E",
"1  c #311C0E",
"2  c #371F0F",
"3  c #241410",
"4  c #251511",
"5  c #2E1A11",
"6  c #2A1F10",
"7  c #2E1F1B",
"8  c #331C16",
"9  c #04220B",
"0  c #04210C",
"q  c #0C250B",
"w  c #082908",
"e  c #073412",
"r  c #073D14",
"t  c #1B3E10",
"y  c #183E17",
"u  c #2A2018",
"i  c #3A2111",
"p  c #363129",
"a  c #3C372E",
"s  c #48281F",
"d  c #41301A",
"f  c #563118",
"g  c #583219",
"h  c #683B1D",
"j  c #512D20",
"k  c #483324",
"l  c #5D3420",
"z  c #523E21",
"x  c #5B3E35",
"c  c #623720",
"v  c #633820",
"b  c #663A20",
"n  c #0D420D",
"m  c #1E4919",
"M  c #0A501B",
"N  c #244D1A",
"B  c #1B6B1C",
"V  c #0C5F20",
"C  c #0E6823",
"Z  c #0E6F25",
"A  c #187123",
"S  c #1A7528",
"D  c #107A28",
"F  c #107B29",
"G  c #296D27",
"H  c #73411F",
"J  c #555223",
"K  c #5B4131",
"L  c #545435",
"P  c #694721",
"I  c #6D4421",
"U  c #734120",
"Y  c #744221",
"T  c #7E4E28",
"R  c #6F562A",
"E  c #634535",
"W  c #7E5031",
"Q  c #7B5C31",
"!  c #7E5F32",
"~  c #43762F",
"^  c #547E26",
"/  c #496337",
"(  c #105E79",
")  c #2E516B",
"_  c #315273",
"`  c #524A5E",
"'  c #5A7E4D",
"]  c #66655C",
"[  c #967118",
"{  c #8E5C2D",
"}  c #8C5E3B",
"|  c #9C702E",
" . c #956937",
".. c #986D39",
"X. c #996E3A",
"o. c #A67E3F",
"O. c #AD7B3B",
"+. c #966A47",
"@. c #906D51",
"#. c #8D7358",
"$. c #9E7450",
"%. c #997B52",
"&. c #A47B41",
"*. c #A47B56",
"=. c #A17B59",
"-. c #2D8223",
";. c #238B29",
":. c #378B23",
">. c #2E9429",
",. c #329729",
"<. c #3CA029",
"1. c #60961F",
"2. c #6CAE19",
"3. c #4B8426",
"4. c #50842F",
"5. c #7E8B38",
"6. c #679432",
"7. c #41A429",
"8. c #7DA739",
"9. c #678E56",
"0. c #808001",
"q. c #A99C12",
"w. c #B2911C",
"e. c #8C9F2E",
"r. c #B58E3F",
"t. c #B79733",
"y. c #BA9B30",
"u. c #BA9A31",
"i. c #BB9C31",
"p. c #BC9E30",
"a. c #B7923A",
"s. c #9AB324",
"d. c #C0A42D",
"f. c #C2A62C",
"g. c #C6A929",
"h. c #C7AE28",
"j. c #CEB823",
"k. c #D1BD21",
"l. c #D2BD21",
"z. c #A8C81A",
"x. c #B6DC10",
"c. c #DFD30A",
"v. c #D5C21E",
"b. c #D7C51D",
"n. c #E8DD11",
"m. c #E8DE10",
"M. c #EEE60D",
"N. c #F1EB0A",
"B. c #F3ED09",
"V. c #E8F204",
"C. c yellow",
"Z. c #FDFC02",
"A. c #FEFD02",
"S. c #FBF509",
"D. c #F7EC13",
"F. c #D6C122",
"G. c #EED629",
"H. c #EFD629",
"J. c #F0D926",
"K. c #E4C631",
"L. c #E6C13C",
"P. c #E6C13E",
"I. c #E8C639",
"U. c #AD8344",
"Y. c #B58B4F",
"T. c #BC9047",
"R. c #A9805C",
"E. c #A48A6B",
"W. c #BD9864",
"Q. c #BD9866",
"!. c #BD9770",
"~. c #C39146",
"^. c #C59346",
"/. c #C1944A",
"(. c #D0A04E",
"). c #D7AA49",
"_. c #DEAC52",
"`. c #E3B945",
"'. c #C6A372",
"]. c #C4A177",
"[. c #C7A475",
"{. c #C8A577",
"}. c #CEAC7A",
"|. c #CFAE7D",
" X c #6578A8",
".X c #657DB5",
"XX c #688D8A",
"oX c #79A196",
"OX c #62B3C4",
"+X c #808080",
"@X c #8994B5",
"#X c #ABA4A1",
"$X c #C5A981",
"%X c #C6B083",
"&X c #D5B48B",
"*X c #D0B38D",
"=X c #D9B88E",
"-X c #E3C597",
";X c #E1C29B",
":X c #E3C59D",
">X c #D8C3A0",
",X c #E9CCA3",
"<X c #ECCFA6",
"1X c #F2D7AE",
"2X c #FCE3BA",
"3X c #FEE5BC",
"4X c #FFE6BD",
"5X c #CFCAC5",
"6X c #E1D1C2",
"7X c #E8DACA",
"8X c #FFEBCB",
"9X c #FFEFD4",
"0X c white",
/* pixels */
"                                                            ",
"                                                            ",
"                        r D D D D r                         ",
"                      0 M D D D D M 0                       ",
"                    o V D D D D D D V o                     ",
"                  . D D D D D D D D D D .                   ",
"                & Z <.<.<.<.<.<.<.<.<.<.Z &                 ",
"              . q >.5.z.s.e.x.5.z.x.z.5.>.q .               ",
"              9 m 6.h.b.l.v.A.&.m.M.b.h.8.N 9               ",
"            : y ~ U.N.f.F.S.A.&.m.l.t.N.`.4.y :             ",
"        &.&X} U { _.&.m.H.L.A.&.m.l.&.&.A.[ U } &X&.        ",
"        Y 3X2X|.u.A.A.L.H.m.o.A.p.Q.{.&.A.u.|.2X3XY         ",
"          $.OXXX| I.f.).H.m.&.A.i.Q.=X-XI.r.oXOX$.          ",
"          H ( ' w.O.&.(.H.B.j.J.a.'.,X<XO.g.9.( H           ",
"            . 0.c.T ! T.K.D.D.^.Y.[.*XE.T c.0..             ",
"            . 0.m.&.. Q /._._.U !.*.f . &.m.0..             ",
"            . z X.U 0X.X` U U 3X+.` .X0XU ~.R .             ",
"              > d X.8X X@X6X;X3X7X@X X8X$ 6 <               ",
"              , k ] }.#X5X9X3X3X9X5X#X}.. .                 ",
"            . i E _  .].:X1X1X1X1X:X]. ..                   ",
"            . 2 K ) U I %.%X%X%X$X=.W W .                   ",
"              . % n U G D D D D & +X0X0X.                   ",
"                  X S J q.V.V.P = 7 x x h =                 ",
"                O w >.3.1.2.2.^ t L @.v U ; .               ",
"                O w >.<.,.;.;.7.B / #.R.R.u .               ",
"                  . C -.:.:.:.:.A e p >X>Xa                 ",
"                  . . . . . . . . . . . .                   ",
"                  . s s 4 .                                 ",
"                + 8 b j 4 .                                 ",
"              . @ l U c 5 .                                 ",
"                $ g g g 1 .                                 ",
"                  . . . .                                   "
};
