/* XPM */
static char *_232682ffdc04289e72e047d25eb0e10MAxIUvDBTSjgf1ms[] = {
/* columns rows colors chars-per-pixel */
"30 32 213 2 ",
"   c None",
".  c #000001",
"X  c #010602",
"o  c #010904",
"O  c #020E04",
"+  c #100907",
"@  c #150D06",
"#  c #170D09",
"$  c #190E08",
"%  c #1A0F08",
"&  c #031104",
"*  c #041E0A",
"=  c #041F0B",
"-  c #1B1008",
";  c #1A1209",
":  c #1D1009",
">  c #1A110C",
",  c #28170B",
"<  c #271F0E",
"1  c #311C0E",
"2  c #351E0F",
"3  c #371F0F",
"4  c #241410",
"5  c #251511",
"6  c #281612",
"7  c #2E1A11",
"8  c #2A1F10",
"9  c #331C16",
"0  c #04220B",
"q  c #04210C",
"w  c #0C250B",
"e  c #082908",
"r  c #073412",
"t  c #073D14",
"y  c #1B3E10",
"u  c #183E17",
"i  c #2A2018",
"p  c #3A2111",
"a  c #382012",
"s  c #363129",
"d  c #3C372E",
"f  c #412C16",
"g  c #452B1F",
"h  c #48281F",
"j  c #563118",
"k  c #583219",
"l  c #61381E",
"z  c #683B1D",
"x  c #4A2920",
"c  c #512D20",
"v  c #5D3420",
"b  c #623720",
"n  c #663A20",
"m  c #693B20",
"M  c #0D420D",
"N  c #1E4919",
"B  c #0A501B",
"V  c #1B6B1C",
"C  c #0C5F20",
"Z  c #234E20",
"A  c #0E6823",
"S  c #0E6F25",
"D  c #187123",
"F  c #1A7528",
"G  c #107A28",
"H  c #107B29",
"J  c #296D27",
"K  c #73411F",
"L  c #555223",
"P  c #694721",
"I  c #6D4421",
"U  c #734120",
"Y  c #744221",
"T  c #7E4E28",
"R  c #6F562A",
"E  c #7E5031",
"W  c #7B5C31",
"Q  c #7E5F32",
"!  c #43762F",
"~  c #547E26",
"^  c #496337",
"/  c #223141",
"(  c #105E79",
")  c #5A4840",
"_  c #4F5B45",
"`  c #524A5E",
"'  c #5A7E4D",
"]  c #967118",
"[  c #8E5C2D",
"{  c #8C5E3B",
"}  c #9C702E",
"|  c #956937",
" . c #A67E3F",
".. c #AD7B3B",
"X. c #966A47",
"o. c #8D7358",
"O. c #9E7450",
"+. c #997B52",
"@. c #A47B41",
"#. c #A47B56",
"$. c #A17B59",
"%. c #877D71",
"&. c #2D8223",
"*. c #238B29",
"=. c #378B23",
"-. c #2E9429",
";. c #329729",
":. c #3CA029",
">. c #60961F",
",. c #6CAE19",
"<. c #4B8426",
"1. c #4E853B",
"2. c #7E8B38",
"3. c #679432",
"4. c #41A429",
"5. c #678E56",
"6. c #7AAA4F",
"7. c #808001",
"8. c #A99C12",
"9. c #B2911C",
"0. c #8C9F2E",
"q. c #B58E3F",
"w. c #B79733",
"e. c #BA9B30",
"r. c #BA9A31",
"t. c #BB9C31",
"y. c #BC9E30",
"u. c #B7923A",
"i. c #9AB324",
"p. c #C0A42D",
"a. c #C6A929",
"s. c #C5AB29",
"d. c #C7AE28",
"f. c #CEB823",
"g. c #D1BD21",
"h. c #D2BD21",
"j. c #A8C81A",
"k. c #B6DC10",
"l. c #DFD30A",
"z. c #D5C21E",
"x. c #D7C51D",
"c. c #DCCC19",
"v. c #E8DD11",
"b. c #E8DE10",
"n. c #EEE60D",
"m. c #F1EB0A",
"M. c #F3ED09",
"N. c #E8F204",
"B. c #F6F206",
"V. c yellow",
"C. c #FDFC02",
"Z. c #FEFD02",
"A. c #FBF509",
"S. c #F7EC13",
"D. c #D6C122",
"F. c #EED629",
"G. c #EFD629",
"H. c #F0D926",
"J. c #E4C631",
"K. c #E7C23C",
"L. c #E6C13E",
"P. c #E8C639",
"I. c #AD8344",
"U. c #B58B4F",
"Y. c #BC9047",
"T. c #A9805C",
"R. c #A48A6B",
"E. c #BD9864",
"W. c #BD9866",
"Q. c #BD9770",
"!. c #C39146",
"~. c #C59346",
"^. c #C1944A",
"/. c #D0A04E",
"(. c #D7AA49",
"). c #DEAC52",
"_. c #C6A372",
"`. c #C4A177",
"'. c #C7A475",
"]. c #C8A577",
"[. c #CEAC7A",
"{. c #CFAE7D",
"}. c #DBC076",
"|. c #456380",
" X c #6578A8",
".X c #657DB5",
"XX c #688D8A",
"oX c #79A196",
"OX c #62B3C4",
"+X c #808080",
"@X c #8994B5",
"#X c #ABA4A1",
"$X c #C5A981",
"%X c #C6B083",
"&X c #D5B48B",
"*X c #D0B38D",
"=X c #D9B88E",
"-X c #E3C597",
";X c #E1C29B",
":X c #E3C59D",
">X c #D8C3A0",
",X c #E9CCA3",
"<X c #ECCFA6",
"1X c #F2D7AE",
"2X c #FCE3BA",
"3X c #FEE5BC",
"4X c #FFE6BD",
"5X c #CFCAC5",
"6X c #E1D1C2",
"7X c #E8DACA",
"8X c #FFEBCB",
"9X c #FFEFD4",
"0X c white",
/* pixels */
"                                                            ",
"                                                            ",
"                        t G G G G t                         ",
"                      q B G G G G B q                       ",
"                    o C G G G G G G C o                     ",
"                  . G G G G G G G G G G .                   ",
"                * S :.:.:.:.:.:.:.:.:.:.S *                 ",
"              . w -.2.j.i.0.k.k.k.k.j.2.-.w .               ",
"              0 N 3.d.x.h.z.Z.c.B.n.x.d.6.Z 0               ",
"            > u ! I.Z.s.D.A.Z.@.v.h.w.m.}.1.u >             ",
"        @.&X{ U [ ).Z.Z.G.K.Z.@.v.h.@.@.Z.] U { &X@.        ",
"        Y 3X2X{.r.Z.Z.K.G.v. .Z.y.W.].@.Z.r.{.2X3XY         ",
"          O.OXXX} P.p.(.G.v.@.Z.t.W.=X-XP.q.oXOXO.          ",
"          K ( ' 9...@./.G.M.f.H.u._.,X<X..s.5.( K           ",
"            . 7.l.T Q Y.J.S.S.~.U.'.*XR.T l.7..             ",
"            . 7.v.@.. W ^.).).U Q.#.j . @.v.7..             ",
"            . R !.U 0X.X` U U 3XX.` .X0XU !.R .             ",
"              < f U 8X X@X6X;X3X7X@X X8X$ 8 <               ",
"                @ 2 [.#X5X9X3X3X9X5X#X[.6 p ,               ",
"                  . | `.:X1X1X1X1X:X`.| x m p .             ",
"                  . E E $.$X%X%X%X+.I U g l 2 .             ",
"                  . 0X0X+X* G G G G J U M & .               ",
"                ; z |.|./ ; P N.N.8.L F X                   ",
"              . : U ) %._ y ~ ,.,.>.<.-.e O                 ",
"              . i T.T.o.^ V 4.*.*.;.:.-.e O                 ",
"                d >X>Xs r D =.=.=.=.&.A .                   ",
"                  . . . . . . . . . . . .                   ",
"                                . 4 h h .                   ",
"                                . 4 c n 9 +                 ",
"                                . 7 b U v # .               ",
"                                . 1 k k k $                 ",
"                                  . . . .                   "
};
