/* XPM */
static char *d9124f4621d24b3df541afc9ec4bbcb2WvlNniE5fo9wIIBF[] = {
/* columns rows colors chars-per-pixel */
"30 32 222 2 ",
"   c None",
".  c #000001",
"X  c #020402",
"o  c #050404",
"O  c gray2",
"+  c #060505",
"@  c #090503",
"#  c #0B0604",
"$  c #010904",
"%  c #020C05",
"&  c #010F06",
"*  c #040C04",
"=  c #0F0807",
"-  c #1B0F07",
";  c #120A09",
":  c #170D0B",
">  c #031204",
",  c #021A09",
"<  c #031A09",
"1  c #031D0A",
"2  c #031F0B",
"3  c #041C0A",
"4  c #1F120A",
"5  c #141415",
"6  c #191919",
"7  c #26160B",
"8  c #241B0F",
"9  c #2E1914",
"0  c #381F12",
"q  c #09230B",
"w  c #0C2309",
"e  c #0C2C0D",
"r  c #0A330B",
"t  c #14330C",
"y  c #14320D",
"u  c #062F10",
"i  c #0C201E",
"p  c #083B14",
"a  c #083E15",
"s  c #163611",
"d  c #183811",
"f  c #2C2211",
"g  c #372413",
"h  c #342615",
"j  c #3B2415",
"k  c #3F2F22",
"l  c #3D3429",
"z  c #442D1D",
"x  c #48281F",
"c  c #45361A",
"v  c #563118",
"b  c #583219",
"n  c #573722",
"m  c #5A3220",
"M  c #0C4517",
"N  c #094718",
"B  c #0A4C1A",
"V  c #174F15",
"C  c #0C5C1F",
"Z  c #0D5E1F",
"A  c #3B4419",
"S  c #26731B",
"D  c #0E6823",
"F  c #1D6121",
"G  c #1A7528",
"H  c #107A28",
"J  c #107B29",
"K  c #127D29",
"L  c #147E29",
"P  c #157F29",
"I  c #357B2F",
"U  c #4A401C",
"Y  c #4C4C1E",
"T  c #73411F",
"R  c #62751F",
"E  c #5C4323",
"W  c #565F23",
"Q  c #704120",
"!  c #734120",
"~  c #7E4E27",
"^  c #745E23",
"/  c #705429",
"(  c #72552D",
")  c #7F5028",
"_  c #7B5C31",
"`  c #517025",
"'  c #62643E",
"]  c #294561",
"[  c #524A4A",
"{  c #614D41",
"}  c #64545C",
"|  c #6A5A5A",
" . c #947119",
".. c #967118",
"X. c #82532A",
"o. c #87552A",
"O. c #8C5D2D",
"+. c #825330",
"@. c #875836",
"#. c #8C5E31",
"$. c #895B39",
"%. c #8B7229",
"&. c #8D6032",
"*. c #A0773E",
"=. c #A67E3F",
"-. c #966A46",
";. c #80735F",
":. c #9C7654",
">. c #A37A40",
",. c #A47B41",
"<. c #A57C41",
"1. c #A47B56",
"2. c #188129",
"3. c #1C8529",
"4. c #238B29",
"5. c #299029",
"6. c #2C9329",
"7. c #2E9429",
"8. c #359A29",
"9. c #238032",
"0. c #509E2D",
"q. c #448733",
"w. c #679432",
"e. c #40A329",
"r. c #41A429",
"t. c #59A52F",
"y. c #79AE26",
"u. c #70A12C",
"i. c #81BA1F",
"p. c #AF8F29",
"a. c #AD882F",
"s. c #B2922B",
"d. c #A98530",
"f. c #A7813E",
"g. c #B28F37",
"h. c #BB9C31",
"j. c #BC9837",
"k. c #B7923A",
"l. c #C5AB29",
"z. c #CEB823",
"x. c #D0BA22",
"c. c #D1BD21",
"v. c #D2BD21",
"b. c #CFAD37",
"n. c #CBA23A",
"m. c #CEA739",
"M. c #8AC719",
"N. c #A3CC10",
"B. c #DCD008",
"V. c #E1D415",
"C. c #E3D614",
"Z. c #E7DC11",
"A. c #E8DE10",
"S. c #E9DF10",
"D. c #EAE10F",
"F. c #F3ED09",
"G. c #F8F505",
"H. c #FEFD01",
"J. c #FEFE00",
"K. c yellow",
"L. c #FDFC02",
"P. c #FEFD02",
"I. c #F9F10E",
"U. c #F5E519",
"Y. c #F4E21C",
"T. c #EFD629",
"R. c #F0D926",
"E. c #E4C631",
"W. c #E7CA30",
"Q. c #E6C13E",
"!. c #B38745",
"~. c #9A866D",
"^. c #B48E62",
"/. c #BD9866",
"(. c #BD9967",
"). c #BC9768",
"_. c #B9946F",
"`. c #BD9770",
"'. c #BE9A75",
"]. c #C59346",
"[. c #C1944A",
"{. c #D0A04E",
"}. c #D4A44F",
"|. c #C3A351",
" X c #DDAB52",
".X c #DEAC52",
"XX c #E2B747",
"oX c #C09B74",
"OX c #CEAC7A",
"+X c #616D93",
"@X c #657D96",
"#X c #697698",
"$X c #787D9A",
"%X c #657AAC",
"&X c #338DA5",
"*X c #769F8D",
"=X c #6FA283",
"-X c #97A68E",
";X c #BEA48F",
":X c #A4B292",
">X c #8D91A2",
",X c #D3B287",
"<X c #D5B48B",
"1X c #CAB19C",
"2X c #DBBC95",
"3X c #A3CCAD",
"4X c #DFC194",
"5X c #E3C597",
"6X c #E4C69D",
"7X c #ECCFA6",
"8X c #F2D7AE",
"9X c #F5DAB1",
"0X c #F8DEB5",
"qX c #FCE2B9",
"wX c #FFE6BD",
"eX c #B0BCC9",
"rX c #B8BBC8",
"tX c #97C4C2",
"yX c #C8C8C8",
"uX c #FFF2DB",
"iX c #FFF3DF",
"pX c white",
/* pixels */
"                                                            ",
"                                                            ",
"                          2 H H 2                           ",
"                        2 p H H p 2                         ",
"                    $ * M L L L L M * $                     ",
"                  . H 8.r.r.r.r.r.r.8.H .                   ",
"                  . H L L L L L L L L H .                   ",
"                , B 7.7.7.7.7.7.7.7.7.7.B ,                 ",
"              . q 4.w.i.y.u.M.w.i.M.i.w.4.q .               ",
"              & s 0.g.V.v.l.K.,.S.G.V.g.t.d &               ",
"            . a I ,.K.h.v.K.K.,.S.v.h.K..Xq.a .             ",
"        >.<X$.Q O. X=.Z.K.S.=.K.K.v.<.=.K...Q $.<X>.        ",
"        X.8X2X^.a.U.V.W.Y.S.,.K.x.|./.,.K.p.^.2X8XX.        ",
"        T '.tX:Xb.K.R.XXT.F.z.K.h./.,XOXR.k.-XtX'.T         ",
"          b &X*Xm.D..X}.E.I.K.K.s.).6X9X].j.=X&Xb           ",
"          . _ #.) ,..X!.[.Q.K.K..._.9X<XQ B.v._ .           ",
"          . f.T.S.,.. _ [.{.,.Q `.1.v . ,.S.T.f..           ",
"            f ^ d.~ yX#X| o.~ oX-.} +XyX~ n.%.f             ",
"              h E &.uX%X$X;X'.7X1X$X%XuX&./ c               ",
"              - g ( 5X>XrXiXwXwXiXrX>X5X( 8                 ",
"            @ j n 5 *.4X0XqXqXqXqX0X4X*..                   ",
"          . v [ @XpXQ Q 1.<X<X<X<X1.Q Q .                   ",
"          . v :.~.6 # y F 9.9.9.9.F V G .                   ",
"            7 k l . B A Y R N.N.R Y ' 3X9 =                 ",
"              . & u 4.` W R N.N.R U { eXm 0 4               ",
"              . , D r.r.6.2.2.2.K N i ] +.@.z .             ",
"              . . . r.r.r.r.r.r.3.H Z . <X9X;..             ",
"                ; x X Z 5.r.r.r.e.S r . O O O               ",
"                  : . 3 e y y y y w >                       ",
"                  . . . . . . . . .                         ",
"                                                            ",
"                                                            "
};
