/* XPM */
static char *_287bd9863ee40c3e23b144e5285001c2MHXR4xW6USLDEUG[] = {
/* columns rows colors chars-per-pixel */
"30 32 227 2 ",
"   c None",
".  c #000001",
"X  c #000101",
"o  c #010201",
"O  c #010301",
"+  c #010302",
"@  c #020402",
"#  c #090503",
"$  c #030D03",
"%  c #010904",
"&  c #100E0C",
"*  c #031104",
"=  c #031406",
"-  c #061E07",
";  c #041D09",
":  c #041C0A",
">  c #061D0B",
",  c #041F0B",
"<  c #1D1009",
"1  c #0F141A",
"2  c #231B0F",
"3  c #2D1914",
"4  c #251F1A",
"5  c #331C16",
"6  c #381F18",
"7  c #072107",
"8  c #072407",
"9  c #05250D",
"0  c #09230B",
"q  c #0F270A",
"w  c #07280A",
"e  c #092B09",
"r  c #1B2B07",
"t  c #0A350C",
"y  c #0A370C",
"u  c #083D15",
"i  c #083E15",
"p  c #3E3E01",
"a  c #2A2017",
"s  c #262C12",
"d  c #292D12",
"f  c #28221B",
"g  c #29231C",
"h  c #3A2116",
"j  c #342F16",
"k  c #303412",
"l  c #3A2720",
"z  c #352C23",
"x  c #29332C",
"c  c #3E3028",
"v  c #3F392F",
"b  c #2C2F33",
"n  c #3B3B3C",
"m  c #412C16",
"M  c #492919",
"N  c #502D16",
"B  c #583219",
"V  c #532F20",
"C  c #42372B",
"Z  c #503C2B",
"A  c #623720",
"S  c #0D410D",
"D  c #0D420D",
"F  c #0B4212",
"G  c #094317",
"H  c #0E4D12",
"J  c #0E4E13",
"K  c #0A4C1A",
"L  c #1D4F15",
"P  c #0E5014",
"I  c #0E5416",
"U  c #0D561D",
"Y  c #0E5D1A",
"T  c #0E5C1B",
"R  c #0E5E1B",
"E  c #0F5F1B",
"W  c #0C5C1F",
"Q  c #155111",
"!  c #1A5B14",
"~  c #215215",
"^  c #0F611C",
"/  c #0E651E",
"(  c #0F671F",
")  c #216818",
"_  c #2D7E1E",
"`  c #317B1F",
"'  c #3C5421",
"]  c #0F6920",
"[  c #0E6823",
"{  c #0F6D22",
"}  c #0F6E23",
"|  c #0E6F25",
" . c #0F7B29",
".. c #1A7528",
"X. c #107A28",
"o. c #107B29",
"O. c #117C29",
"+. c #2E6122",
"@. c #296E27",
"#. c #795B17",
"$. c #574222",
"%. c #4D5723",
"&. c #425E25",
"*. c #495528",
"=. c #4F453B",
"-. c #4E473B",
";. c #734120",
":. c #7F5028",
">. c #785D2D",
",. c #64453D",
"<. c #745F3D",
"1. c #4C6C25",
"2. c #456836",
"3. c #41783B",
"4. c #606723",
"5. c #767B3A",
"6. c #004059",
"7. c #26474A",
"8. c #3B4F66",
"9. c #625341",
"0. c #6B5A46",
"q. c #967118",
"w. c #8D5F3B",
"e. c #8E6130",
"r. c #8D6032",
"t. c #9A7739",
"y. c #9C723C",
"u. c #A57D3F",
"i. c #937449",
"p. c #A47B41",
"a. c #A57D40",
"s. c #A87F5A",
"d. c #897C66",
"f. c #937D61",
"g. c #188129",
"h. c #1C8529",
"j. c #238B29",
"k. c #308420",
"l. c #308922",
"z. c #378B23",
"x. c #348C22",
"c. c #2E9429",
"v. c #349527",
"b. c #399525",
"n. c #359A29",
"m. c #3B9F29",
"M. c #3CA029",
"N. c #6CAE19",
"B. c #40A329",
"V. c #41A429",
"C. c #5EB223",
"Z. c #478946",
"A. c #898900",
"S. c #938939",
"D. c #849E39",
"F. c #BB9C31",
"G. c #C2A72A",
"H. c #C0A42D",
"J. c #C6AD28",
"K. c #C7AE28",
"L. c #D1BD21",
"P. c #D2BD21",
"I. c #D4BD25",
"U. c #C6BA3A",
"Y. c #D9B836",
"T. c #D9B33F",
"R. c #97C616",
"E. c #DCD008",
"W. c #DACA1A",
"Q. c #DCCA1C",
"!. c #E6DC0F",
"~. c #E8DE10",
"^. c #E6E600",
"/. c #F3EE04",
"(. c #F6F206",
"). c #FEFE00",
"_. c yellow",
"`. c #EAE013",
"'. c #F5E519",
"]. c #D6C122",
"[. c #EFD629",
"{. c #E2C430",
"}. c #F5EC23",
"|. c #AC844C",
" X c #B18645",
".X c #B28745",
"XX c #B38745",
"oX c #B58945",
"OX c #BA8E48",
"+X c #A69C43",
"@X c #B28C52",
"#X c #968C63",
"$X c #AE8661",
"%X c #B9946F",
"&X c #BD9770",
"*X c #C39146",
"=X c #CE9C4A",
"-X c #CD9F4C",
";X c #D4BC44",
":X c #DEAB52",
">X c #DEAC52",
",X c #D2B17F",
"<X c #F4E551",
"1X c #F5E366",
"2X c #31529C",
"3X c #2993B5",
"4X c #77ABA6",
"5X c #AC9C8F",
"6X c #B29F8F",
"7X c #BFAD8E",
"8X c #D1B083",
"9X c #D3B188",
"0X c #D5B48B",
"qX c #CEBB9D",
"wX c #D1B793",
"eX c #A3CCAD",
"rX c #E8CB9E",
"tX c #E8CBA2",
"yX c #EACDA4",
"uX c #F2D7AE",
"iX c #FCE2B9",
"pX c #FFE6BD",
"aX c #B0BCC9",
"sX c #FFE7C1",
"dX c #FFEBCB",
"fX c #FFECCE",
"gX c white",
/* pixels */
"                                                            ",
"                                                            ",
"                                                            ",
"                                                            ",
"                                                            ",
"                    o.n.V.V.V.D } &.:.p.                    ",
"                 . .M.B.V.V.V.D l.R./.(.:X X                ",
"              / g.c.V.V.V.b.) _ D.U.{.J.OXI.J.              ",
"            I ] g.c.V.V.V.x.D V.+XT.Y.p.OXI.L.G.            ",
"          D } o.o.o.b.b.b.k.Q C.S.L.`.|.=XoX].!.y.          ",
"          D } o.o.o.D D D ! V._.F.L.}.0X;.*X[.E.;.          ",
"        D o.o.o.o.o.o.o.R P O._.F.a.@X0X9Xw.r.u.            ",
"        D o.o./ I I o.R R @.5.H.W.;X8XuX0XZ m               ",
"        8 o./ F e D ^ R R +.r.p.~.<XwXd.s.a .               ",
"        . } H 7 * D 2.Z.3.*.;. XQ.1XqXn ,.c f               ",
"        . D D 7 * D pXpXyX&X;.>X X,XfXgX2X5X0..             ",
"        . o., .   . p.rXpX7X. _.q.%XfXgX2X5X0..             ",
"        . H = .   . 2 i.4X3X. _.q.%XsXdX6X-.4               ",
"          - $     A.>.$.7.6.. _.q.$XtXtX9.g                 ",
"          .       _.t.d , , . '.#.<.#Xf..                   ",
"                    . t R U # -Xj w t %                     ",
"                    . W u < ;.. W o.o.o..                   ",
"                    . W u , ..| 9 G o.o.^.p                 ",
"                  . K ' s x eXeXx s %.%.N.r .               ",
"                  . o.1.k b aXaXb k 4.4.j.0 .               ",
"                  . ] v.~ 1 8.8.1 L m.V.z.q                 ",
"                    . ` ~ < ;.;.< u h.V..                   ",
"                      . . z 9XiXv . . @                     ",
"                        . & C -.l 5 h N .                   ",
"                          . . . 6 V A ;..                   ",
"                            . . 3 M B B .                   ",
"                                . . . .                     "
};
