/* XPM */
static char *_dfa0f70d5514b15b10dce3d7e129df4ipBgzmHixtP3hPVz[] = {
/* columns rows colors chars-per-pixel */
"30 32 172 2 ",
"   c None",
".  c #000001",
"X  c #030C04",
"o  c #0A0604",
"O  c #170D09",
"+  c #041707",
"@  c #13110F",
"#  c #1D1009",
"$  c #1D1D01",
"%  c #0A1017",
"&  c #27160D",
"*  c #351E0F",
"=  c #251511",
"-  c #281612",
";  c #291913",
":  c #311B15",
">  c #10290B",
",  c #0A330A",
"<  c #0A3B0F",
"1  c #062F10",
"2  c #1C2A14",
"3  c #093E12",
"4  c #07270A",
"5  c #373407",
"6  c #2D2919",
"7  c #3B2114",
"8  c #3F231B",
"9  c #122123",
"0  c #183239",
"q  c #372E27",
"w  c #202F3D",
"e  c #3C372E",
"r  c #44251D",
"t  c #54321C",
"y  c #553119",
"u  c #683B1D",
"i  c #4A2920",
"p  c #542F20",
"a  c #453729",
"s  c #5F3E26",
"d  c #0D420D",
"f  c #0C4A16",
"g  c #134615",
"h  c #0E5215",
"j  c #0E5E1C",
"k  c #155111",
"l  c #1C5913",
"z  c #2E4F1B",
"x  c #0F611C",
"c  c #1A671B",
"v  c #29691B",
"b  c #2A791D",
"n  c #3E592E",
"m  c #265B26",
"M  c #0F6B22",
"N  c #107426",
"B  c #107B29",
"V  c #197927",
"C  c #197B30",
"Z  c #1A662C",
"A  c #296D27",
"S  c #397625",
"D  c #4E4E01",
"F  c #72401F",
"G  c #767601",
"H  c #4E473B",
"J  c #734120",
"K  c #7B4924",
"L  c #615C23",
"P  c #604638",
"I  c #7B5C31",
"U  c #694721",
"Y  c #427123",
"T  c #5C6039",
"R  c #547E26",
"E  c #223B51",
"W  c #3B4655",
"Q  c #3D566F",
"!  c #395674",
"~  c #5F5147",
"^  c #4D4B59",
"/  c #675744",
"(  c #6E7446",
")  c #626263",
"_  c #767676",
"`  c #967118",
"'  c #916A19",
"]  c #875936",
"[  c #916534",
"{  c #AD7B3B",
"}  c #916441",
"|  c #80735F",
" . c #A47A41",
".. c #A87F42",
"X. c #1B8529",
"o. c #1B8027",
"O. c #238B29",
"+. c #358C23",
"@. c #308420",
"#. c #399E29",
"$. c #3B9726",
"%. c #2A9129",
"&. c #3CA029",
"*. c #46901C",
"=. c #4B9127",
"-. c #41A429",
";. c #5EB223",
":. c #738253",
">. c #7D9562",
",. c #7EAC6D",
"<. c #AC823B",
"1. c #B5833F",
"2. c #CFBE0A",
"3. c #C4A92B",
"4. c #CFB629",
"5. c #D7BF24",
"6. c #E4BD3F",
"7. c #A0D215",
"8. c #C8C800",
"9. c #E4D41C",
"0. c #E8DA17",
"q. c #E4D80D",
"w. c #EBEB00",
"e. c yellow",
"r. c #FCF708",
"t. c #F9EE11",
"y. c #F7EA15",
"u. c #C6D022",
"i. c #E6CA2B",
"p. c #EAD327",
"a. c #F1DD22",
"s. c #E6C13E",
"d. c #EAC936",
"f. c #9F9D45",
"g. c #B78845",
"h. c #BF9249",
"j. c #A9805C",
"k. c #B28C59",
"l. c #AC844C",
"z. c #BEAE46",
"x. c #AAA744",
"c. c #9D8E75",
"v. c #A78D6D",
"b. c #B9946F",
"n. c #C1944A",
"m. c #D8B04C",
"M. c #DEAC52",
"N. c #D9AF6E",
"B. c #C8A57A",
"V. c #EAD46E",
"C. c #F3DE63",
"Z. c #31529C",
"A. c #6E879B",
"S. c #529BA0",
"D. c #38B7D4",
"F. c #808080",
"G. c #AC9C8F",
"H. c #BFAD8E",
"J. c #CFAD85",
"K. c #D5B48B",
"L. c #C9B391",
"P. c #DEBF96",
"I. c #E8CB9E",
"U. c #DBC7A6",
"Y. c #EACDA0",
"T. c #EFD3AA",
"R. c #FFE6BD",
"E. c #FAE0B6",
"W. c #C3DECA",
"Q. c #FFECCE",
"!. c white",
"~. c #E8F2EA",
/* pixels */
"                                                            ",
"                                                            ",
"                                                            ",
"                                                            ",
"                      B %.-.-.#.l c S K ..                  ",
"              d h B -.-.-.-.-.d +.7.y.M.M.g. .              ",
"            d j o.&.-.-.-.+.k $.x.m.d.r.r.6.h. .            ",
"            d j X.-.-.-.-.+.d -.u.a.p.3.d.a.9.5. .          ",
"            h M X.-.b b +.+.d -.u.t.q. .1.i.t.q.[           ",
"          d M B X.#.k k b @.k ;.z.i.9.l.] g.5.2.F           ",
"        . d M B B B -.-.b l -.e.s.n.k.K.K.] J J             ",
"        . d M B B B B B j h B e.s.N.P.R.K.q 7 J             ",
"        . d M B B B B j f z f.3.9.C.L.H } = #               ",
"        . d M B N x ,.>.:.( { h.4.V.U._ ^ ~ a               ",
"        . , M N j , Y.E.T.B.J 6.<.B.Q.!.Z.G./ .             ",
"          . j j , .  .I.R.P.J e.` b.Q.!.Z.G./ .             ",
"          . j 3 . . . I S.D.M.e.` b.R.R.K.q .               ",
"          . < 4 5 8.v.a 9 n t.' k.J.P.P.6                   ",
"            + X $ G / 2 + 5 p.* T ( ( /                     ",
"            . % % . & g 3 z f.. 3 h l D                     ",
"            @ w E X J A B B V X Z C *.w.X       o o         ",
"          . H.| + B J A B A J B W.F.. . -.> . O i J # .     ",
"          . @ g V &.=.L U t o ~.A.! W u + y t r i J #       ",
"        . . = 2 f O.-.=.R Y f ) Q ^ P J c.a 7 i i & O       ",
"        . & r 7 6 m v $.-.#.O.1 0 q s j.c.q : r : .         ",
"        . J p t t 8 . v +.+.+.M + . e U.. : 8 : .           ",
"        . J p = . .   . . . . . . .   .   . . .             ",
"        . i i = .                                           ",
"        . i i = .                                           ",
"        . - - #                                             ",
"          . .                                               ",
"                                                            "
};
