/* XPM */
static char *_49620a212b14077912e3a9225c60943q2wUMqes2jwDlShR[] = {
/* columns rows colors chars-per-pixel */
"30 32 256 2 ",
"   c None",
".  c #000001",
"X  c #010101",
"o  c #010302",
"O  c #060606",
"+  c #090505",
"@  c #020A03",
"#  c #030D03",
"$  c #010904",
"%  c #020C05",
"&  c #030E04",
"*  c #030F04",
"=  c #100907",
"-  c #110908",
";  c #031104",
":  c #061E07",
">  c #0A1907",
",  c #081C07",
"<  c #041F0B",
"1  c #14120F",
"2  c #1C1209",
"3  c #1B140B",
"4  c #22130F",
"5  c #2C190D",
"6  c #251511",
"7  c #331C16",
"8  c #371F18",
"9  c #381F19",
"0  c #072107",
"q  c #072407",
"w  c #082107",
"e  c #072308",
"r  c #10290B",
"t  c #112C0C",
"y  c #0A320A",
"u  c #0A370C",
"i  c #14320D",
"p  c #0C3714",
"a  c #073A13",
"s  c #083D15",
"d  c #2B2214",
"f  c #27231E",
"g  c #2B241C",
"h  c #2D261E",
"j  c #3A2111",
"k  c #3E2312",
"l  c #382715",
"z  c #342C14",
"x  c #392019",
"c  c #302820",
"v  c #303B28",
"b  c #353B3F",
"n  c #3B3B3C",
"m  c #462814",
"M  c #472814",
"N  c #432619",
"B  c #40231C",
"V  c #492919",
"C  c #55301C",
"Z  c #683B1D",
"A  c #703F1F",
"S  c #532F20",
"D  c #4A372F",
"F  c #43392D",
"G  c #543F2D",
"H  c #403A30",
"J  c #413A30",
"K  c #0C420C",
"L  c #0D420D",
"P  c #0D430E",
"I  c #0E440E",
"U  c #0D460F",
"Y  c #0D4A10",
"T  c #0D4A11",
"R  c #0C4F13",
"E  c #0A4C1A",
"W  c #0E5014",
"Q  c #0E5115",
"!  c #0E5214",
"~  c #0F5E1B",
"^  c #0C5B1E",
"/  c #0C5C1F",
"(  c #1A5914",
")  c #1A5A14",
"_  c #1A5B14",
"`  c #334B1A",
"'  c #0F611C",
"]  c #0F631D",
"[  c #0F671F",
"{  c #13651C",
"}  c #1A6218",
"|  c #1E741F",
" . c #246D19",
".. c #25711B",
"X. c #27731B",
"o. c #2D7E1E",
"O. c #0C5F20",
"+. c #145722",
"@. c #2C4729",
"#. c #3B5C2A",
"$. c #394034",
"%. c #0E6621",
"&. c #0F6920",
"*. c #0F6D22",
"=. c #0F6E23",
"-. c #0F7124",
";. c #0F7226",
":. c #0F7929",
">. c #0F7B29",
",. c #107626",
"<. c #107727",
"1. c #107B28",
"2. c #107B29",
"3. c #117C29",
"4. c #266724",
"5. c #296D27",
"6. c #366526",
"7. c #3E6025",
"8. c #376931",
"9. c #4F461F",
"0. c #76461F",
"q. c #795B17",
"w. c #526608",
"e. c #4E473B",
"r. c #5A423C",
"t. c #624B26",
"y. c #734120",
"u. c #6B5021",
"i. c #7F5028",
"p. c #6E5635",
"a. c #7B5C31",
"s. c #745F3D",
"d. c #556624",
"f. c #426533",
"g. c #456836",
"h. c #7C6822",
"j. c #223A4B",
"k. c #21394F",
"l. c #1E6349",
"z. c #005676",
"x. c #324A64",
"c. c #494C55",
"v. c #706357",
"b. c #9A6F39",
"n. c #9C723C",
"m. c #A2753C",
"M. c #A97739",
"N. c #A67E3F",
"B. c #966A47",
"V. c #846D50",
"C. c #847159",
"Z. c #A37A40",
"A. c #A47B40",
"S. c #A47B41",
"D. c #A07E5D",
"F. c #897C66",
"G. c #937D61",
"H. c #1B8429",
"J. c #1C8529",
"K. c #1F8829",
"L. c #238B29",
"P. c #338A22",
"I. c #348C22",
"U. c #299029",
"Y. c #2E9429",
"T. c #399525",
"R. c #3B9926",
"E. c #349828",
"W. c #359A29",
"Q. c #3CA029",
"!. c #3DA129",
"~. c #3EA128",
"^. c #569719",
"/. c #7DAC12",
"(. c #7EB816",
"). c #4C8F27",
"_. c #40A228",
"`. c #41A429",
"'. c #6BAE2B",
"]. c #6AB320",
"[. c #898900",
"{. c #B1B100",
"}. c #B9A010",
"|. c #9F852B",
" X c #AE8C35",
".X c #90A83E",
"XX c #AFAA20",
"oX c #C3A916",
"OX c #C7AE28",
"+X c #CEB32A",
"@X c #DDBC36",
"#X c #9DCB1B",
"$X c #A2C820",
"%X c #DCD008",
"&X c #C7E10A",
"*X c #CCE60B",
"=X c #F2ED03",
"-X c yellow",
";X c #FBF509",
":X c #F1E412",
">X c #F5E519",
",X c #E1CA25",
"<X c #E4C72B",
"1X c #ECD429",
"2X c #EFD529",
"3X c #EED629",
"4X c #F2DF20",
"5X c #F0D926",
"6X c #E2C430",
"7X c #EBCC32",
"8X c #E6C13E",
"9X c #EFE23B",
"0X c #979164",
"qX c #9D8E75",
"wX c #A08769",
"eX c #BB9660",
"rX c #BC9765",
"tX c #B8926C",
"yX c #C39146",
"uX c #C79547",
"iX c #C09349",
"pX c #C1944A",
"aX c #C2944A",
"sX c #CD9F4C",
"dX c #CF9E4C",
"fX c #D0A14D",
"gX c #D5A44F",
"hX c #D8A750",
"jX c #DCA951",
"kX c #D8AA5B",
"lX c #C6A274",
"zX c #D2B17F",
"xX c #ECD14A",
"cX c #657DB5",
"vX c #7A9982",
"bX c #37C4F1",
"nX c #989E81",
"mX c #838394",
"MX c #8F949A",
"NX c #96979C",
"BX c #97A98A",
"VX c #D3B289",
"CX c #D4B389",
"ZX c #D5B48B",
"AX c #C3BD91",
"SX c #C5B29E",
"DX c #DCBD94",
"FX c #A3CCAD",
"GX c #E8CBA2",
"HX c #F2D7AE",
"JX c #F5DAB1",
"KX c #FCE2B9",
"LX c #FFE6BD",
"PX c #B0BCC9",
"IX c #FFEBCB",
"UX c white",
/* pixels */
"                                                            ",
"                                                            ",
"                                                            ",
"                                                            ",
"                                                            ",
"                        :.J.`.`._ ~ 5.y.S.                  ",
"                    :.W.!.!.`.`._ X.].=XhXjXiXZ.            ",
"                R 1.Y.!.`.`.`.`._ X.'.7X4X4X@XpXS.          ",
"              Q { L.`.`.`.`.`.o. .^.$X7X4X4X3X6XOX          ",
"            T ' J.`.`.R.T.R.`.L I.#X;X-XgXsX<X;X-Xn.        ",
"          L =.1.J.`.`._ L _ `.L I..X8X-XS.i.M.8X-Xy.        ",
"          L =.1.1.3.3.W._.P.I _.*X3XfXN.CXVXrXb.0.          ",
"        L &.<.1.1.1.1.H.| } &.K.&X3XkXlXHXDXV.l             ",
"        L 1.1.1.1.1.1.[ Q T ' 7.XX,XxXGXF.D.G .             ",
"        L 1.-.%.O.O.=.8.g.f.#.y.m.+X9XLXn r.D h             ",
"    . ; L 1.Q 0 . . L AXLXJXZXy.yXpXeXLXUXcXmXwX.           ",
"    . ; L L ; .     . a.zXLXLXy.%X}.B.LXUXcXmXwX.           ",
"    . ; L &         . 3 p.nXbXuX:X}.B.LXIXSXv.g             ",
"      # :           [.h.t.$.z.5XoX XtXGXGXC.F               ",
"        .           {.|.9.& . >Xq.s.0X0XG.c                 ",
"                    . . e u $ sXz q L I $                   ",
"                      . s 1.1.. y L Q 1.1.< .               ",
"                    . k.l.1.1.Z 4.<.^ & 1.-.a .             ",
"                  . qXb v 7.1.y.BXFXvX. 1.(.w..             ",
"                  . qX@.` d.6.m NXPXMX5 E /.w..             ",
"                    . / U.).u.> j.x.c.y.f +.p + .           ",
"                  . . / U.`.`.`.r j y.y.LXJ 6 8 .           ",
"                  . A 2 . t `.`._ w J KXO 9 6 .             ",
"                  . y.N 7 d i i , @ 1 e.. - =               ",
"                  . k C S B 4 . . . . . . .                 ",
"                    . m V x x .                             ",
"                      . . . . .                             "
};
