/* XPM */
static char *_71f66d33bb94436de8b13f17762f6d5vtZkNdLSlQ6aTYTi[] = {
/* columns rows colors chars-per-pixel */
"30 32 169 2 ",
"   c None",
".  c #000001",
"X  c #030C04",
"o  c #0F0907",
"O  c #070709",
"+  c #130A09",
"@  c #1A0F08",
"#  c #140B07",
"$  c #051B06",
"%  c #041405",
"&  c #1D100A",
"*  c #0C151E",
"=  c #1B1E19",
"-  c #281612",
";  c #251F1A",
":  c #281712",
">  c #371F18",
",  c #341D14",
"<  c #2C190D",
"1  c #06260C",
"2  c #0A260B",
"3  c #0A330A",
"4  c #0B3E0F",
"5  c #083914",
"6  c #193410",
"7  c #2A221A",
"8  c #262A12",
"9  c #3A2111",
"0  c #243911",
"q  c #373917",
"w  c #12312C",
"e  c #002838",
"r  c #332C22",
"t  c #3E352C",
"y  c #33363D",
"u  c #472814",
"i  c #512E1C",
"p  c #61371B",
"a  c #4A2920",
"s  c #542F20",
"d  c #493221",
"f  c #523E21",
"g  c #0D420D",
"h  c #0C4816",
"j  c #144C11",
"k  c #12471F",
"l  c #0E5416",
"z  c #0D5D1C",
"x  c #0C551F",
"c  c #185613",
"v  c #3F4704",
"b  c #215215",
"n  c #0F631D",
"m  c #27731B",
"M  c #0F6C21",
"N  c #106D22",
"B  c #0F7728",
"V  c #117326",
"C  c #1B7422",
"Z  c #107B29",
"A  c #187728",
"S  c #2C6C27",
"D  c #317E20",
"F  c #4E4E01",
"G  c #7E501E",
"H  c #67521A",
"J  c #767601",
"K  c #4F4A2B",
"L  c #415923",
"P  c #5A5022",
"I  c #564839",
"U  c #4E473B",
"Y  c #734120",
"T  c #7B5C31",
"R  c #694C25",
"E  c #547E26",
"W  c #3B4F66",
"Q  c #385877",
"!  c #2C4A68",
"~  c #5B4B47",
"^  c #4C5C50",
"/  c #685845",
"(  c #697747",
")  c #5D5460",
"_  c #4A5A6B",
"`  c #767676",
"'  c #865E3B",
"]  c #9E7339",
"[  c #AD7B3B",
"{  c #966A47",
"}  c #A47B41",
"|  c #AC7C40",
" . c #1D8035",
".. c #1F8829",
"X. c #238828",
"o. c #358B22",
"O. c #358B25",
"+. c #2D9329",
"@. c #389A28",
"#. c #3DA029",
"$. c #4C9A1E",
"%. c #71BB1F",
"&. c #41A429",
"*. c #679758",
"=. c #78905C",
"-. c #7E9D66",
";. c #7B8B71",
":. c #AB8B17",
">. c #B9A010",
",. c #B1813F",
"<. c #BA9A32",
"1. c #BA9736",
"2. c #B6982F",
"3. c #9EAF3A",
"4. c #85A33A",
"5. c #B8A233",
"6. c #CAA535",
"7. c #DFBC38",
"8. c #9AC224",
"9. c #C8C800",
"0. c #C4DE0A",
"q. c #DCD008",
"w. c #DCCC19",
"e. c #D0E80A",
"r. c #F1EB0A",
"t. c #EDF503",
"y. c yellow",
"u. c #FCF708",
"i. c #F4E519",
"p. c #F8EC14",
"a. c #E9E205",
"s. c #DAC523",
"d. c #EED42B",
"f. c #F2DF20",
"g. c #E9C738",
"h. c #F4E23E",
"j. c #9F9D45",
"k. c #AB8347",
"l. c #BA8D47",
"z. c #A9805C",
"x. c #B28C5A",
"c. c #A08769",
"v. c #BD9866",
"b. c #B2A77B",
"n. c #C99748",
"m. c #D3A24F",
"M. c #D3AD4D",
"N. c #DCAA51",
"B. c #E2B746",
"V. c #DBAE60",
"C. c #C4A47D",
"Z. c #D2B17F",
"A. c #E0CB46",
"S. c #657DB5",
"D. c #00BAFF",
"F. c #838394",
"G. c #88BD94",
"H. c #96AAB5",
"J. c #B1B7B1",
"K. c #D5B48A",
"L. c #DEBF96",
"P. c #DFC097",
"I. c #E0C198",
"U. c #D8C3A0",
"Y. c #F4D9AF",
"T. c #F7DCB3",
"R. c #FFE6BD",
"E. c #BFBFC0",
"W. c white",
/* pixels */
"                                                            ",
"                                                            ",
"                                                            ",
"                                                            ",
"                      Z Z ..&.&.@.m c X.G ] k.              ",
"                    Z @.&.&.&.&.c m %.y.y.g.N.m.}           ",
"                l Z #.&.&.&.&.j o.4.M.B.B.i.u.i.N.}         ",
"              l M Z &.&.&.&.&.g o.8.f.f.l.7.g.d.f.w.<.      ",
"            h M Z Z +.#.&.&.&.g o.8.i.y.} ,.n.B.f.y.<.}     ",
"          . z Z Z Z Z +.#.#.@.j $.3.B.r.k.' | m.m.a.2.      ",
"          . z Z Z Z Z Z +.o.g &.e.d.m.} K.K.v.} } Y         ",
"        . g M Z Z Z Z Z Z N g Z 0.d.V.K.R.P./ .             ",
"        . g M Z Z Z Z Z n z M j.5.s.h.Y.U ' d .             ",
"        . g M Z V n n *.-.=.*.[ l.6.A.R.` ) ~ I             ",
"        . g M V z 3 3 b.Y.T.P.Y 6.1.x.R.W.S.F.c..           ",
"        . g M z 3 . . T Z.R.R.Y q.>.{ R.W.S.F.c..           ",
"        . g M 5 .   . . f ;.D.N.p.>.{ R.R.I./ .             ",
"          X 4 1 .   9.2.R = e p.:.k.C.L.L.I ;               ",
"            $ %     J H q $ . d.H K ( ( / 7                 ",
"            .       . @ 6 h 1 j.8 1 l l F                   ",
"                    O i L A Z A 1 k  .V t.v X               ",
"                  . Q * 9 P Z Y S G.E.. Z @.b .             ",
"                r C.O x V S R o J.H.Q ! X D b . .           ",
"                ; I . g C O.E h ^ _ W ~ u 0 8 , u .         ",
"                # < & 2 c o.&.X.h w y Y z.7 - s Y .         ",
"              . & Y a + $ j o.o.C 5 @ p U.t : i p .         ",
"              . & Y a + . . . . . . . . . > a > .           ",
"                + a a + .             . . . . .             ",
"              . + a a + .                                   ",
"                o - - o                                     ",
"                  . .                                       ",
"                                                            "
};
