/* XPM */
static char *c56ab1ba93404db68039239ba7d2c3d9lvau3KCtBoZZmKw8[] = {
/* columns rows colors chars-per-pixel */
"30 32 245 2 ",
"   c None",
".  c #000001",
"X  c #010001",
"o  c #020102",
"O  c #010501",
"+  c #010502",
"@  c #030603",
"#  c #0A0603",
"$  c #0B0606",
"%  c #010B03",
"&  c #020D03",
"*  c #130A09",
"=  c #051B06",
"-  c #051E06",
";  c #1B1008",
":  c #1F120A",
">  c #171310",
",  c #141415",
"<  c #1B1E19",
"1  c #2B180C",
"2  c #331D0E",
"3  c #351E0F",
"4  c #221610",
"5  c #251511",
"6  c #281612",
"7  c #2E1914",
"8  c #361F11",
"9  c #072107",
"0  c #05260D",
"q  c #0B230D",
"w  c #072A0B",
"e  c #0C2B0D",
"r  c #16210A",
"t  c #0A320A",
"y  c #0A330A",
"u  c #0C3F0C",
"i  c #062F10",
"p  c #132E13",
"a  c #083E15",
"s  c #21310E",
"d  c #282712",
"f  c #362110",
"g  c #3A2111",
"h  c #3A2612",
"j  c #002838",
"k  c #353B24",
"l  c #412412",
"z  c #472814",
"x  c #522E17",
"c  c #55321B",
"v  c #64391C",
"b  c #683B1D",
"n  c #4A2920",
"m  c #492B23",
"M  c #493221",
"N  c #5D3420",
"B  c #523E21",
"V  c #5B3E35",
"C  c #633820",
"Z  c #643820",
"A  c #6D3D20",
"S  c #6F3F20",
"D  c #0D410D",
"F  c #0D420D",
"G  c #0C4016",
"H  c #0D4F13",
"J  c #0C4F18",
"K  c #114515",
"L  c #124B10",
"P  c #0E5014",
"I  c #0E5214",
"U  c #0F5214",
"Y  c #0E5416",
"T  c #0E5D1A",
"R  c #0F5E1B",
"E  c #0E5F1B",
"W  c #0F5F1B",
"Q  c #155111",
"!  c #1A5A14",
"~  c #11521A",
"^  c #215215",
"/  c #0F611C",
"(  c #0F641E",
")  c #1E6216",
"_  c #1E6417",
"`  c #10601B",
"'  c #216215",
"]  c #28651A",
"[  c #27731B",
"{  c #2D7E1E",
"}  c #20512C",
"|  c #0E6823",
" . c #0F6D22",
".. c #107426",
"X. c #107626",
"o. c #1C7423",
"O. c #107A28",
"+. c #107B29",
"@. c #117C29",
"#. c #2F6520",
"$. c #634B17",
"%. c #7E501E",
"&. c #767601",
"*. c #4F4A2B",
"=. c #425E25",
"-. c #5A5022",
";. c #42413E",
":. c #4E473B",
">. c #554738",
",. c #5A4D3D",
"<. c #694721",
"1. c #734120",
"2. c #764421",
"3. c #675C31",
"4. c #65543E",
"5. c #7B5C31",
"6. c #547E26",
"7. c #404041",
"8. c #5B4E4D",
"9. c #625341",
"0. c #6B5A46",
"q. c #6C5B46",
"w. c #64564E",
"e. c #697747",
"r. c #756956",
"t. c #766A58",
"y. c #5D5460",
"u. c #626263",
"i. c #767676",
"p. c #8E5C2D",
"a. c #8C5F37",
"s. c #805D3F",
"d. c #9E7339",
"f. c #A8773D",
"g. c #AD7B3B",
"h. c #80634A",
"j. c #8A674A",
"k. c #966A47",
"l. c #A47B40",
"z. c #A47A41",
"x. c #A47B41",
"c. c #A97E43",
"v. c #A47B56",
"b. c #806F64",
"n. c #807C78",
"m. c #228526",
"M. c #2D8223",
"N. c #278825",
"B. c #268D29",
"V. c #328721",
"C. c #328821",
"Z. c #378B23",
"A. c #348C22",
"S. c #2E9429",
"D. c #399525",
"F. c #3E9E27",
"G. c #329729",
"H. c #359A29",
"J. c #3A9D28",
"K. c #399E29",
"L. c #3CA029",
"P. c #4C9A1E",
"I. c #71BB1F",
"U. c #41A328",
"Y. c #41A429",
"T. c #50AB26",
"R. c #61824E",
"E. c #799F64",
"W. c #7E9D66",
"Q. c #7B8B71",
"!. c #AB8B17",
"~. c #B9A010",
"^. c #819732",
"/. c #AD883B",
"(. c #B79733",
"). c #BF963C",
"_. c #8FB821",
"`. c #85A33A",
"'. c #B8A233",
"]. c #C7AE28",
"[. c #CCB524",
"{. c #D1BD21",
"}. c #D2BD21",
"|. c #D0B924",
" X c #C9A037",
".X c #CAAA33",
"XX c #CBAA36",
"oX c #C7A33A",
"OX c #D9B13B",
"+X c #9AC224",
"@X c #C8C800",
"#X c #C4DE0A",
"$X c #DCD008",
"%X c #D7C51D",
"&X c #DCCC19",
"*X c #E3D713",
"=X c #D0E80A",
"-X c #F1EB0A",
";X c yellow",
":X c #FAF20D",
">X c #F7EA15",
",X c #F8ED12",
"<X c #E4CB2A",
"1X c #EDD22C",
"2X c #E6C13D",
"3X c #E7D63A",
"4X c #9F9D45",
"5X c #AA8241",
"6X c #A98346",
"7X c #AC844C",
"8X c #B88843",
"9X c #BA8842",
"0X c #BA8C45",
"qX c #BA8E48",
"wX c #B08953",
"eX c #B28C5A",
"rX c #AF9C52",
"tX c #A08769",
"yX c #A38769",
"uX c #A29278",
"iX c #B2A77B",
"pX c #C1944A",
"aX c #C8994B",
"sX c #D3AD4D",
"dX c #DEAC52",
"fX c #E1B44A",
"gX c #C7A47C",
"hX c #D2B17F",
"jX c #E0CB46",
"kX c #657DB5",
"lX c #00BAFF",
"zX c #868E88",
"xX c #838394",
"cX c #D4B389",
"vX c #D5B48B",
"bX c #DEBF96",
"nX c #DFC097",
"mX c #E0C198",
"MX c #F2D7AE",
"NX c #F5DAAF",
"BX c #F7DCB3",
"VX c #FEE5BC",
"CX c #FFE6BD",
"ZX c #E8F2EA",
"AX c white",
/* pixels */
"                                                            ",
"                                                            ",
"                                                            ",
"                                                            ",
"              c.d.%.T.' [ F.Y.Y.Y.U.                        ",
"            l.pX2X;X;XI.[ ! Y.Y.Y.Y.Y.Y.F                   ",
"          l.*X|.5X/.fXsX`.V.L Y.Y.Y.Y.Y...H                 ",
"        l.&X[.oXaXaXqX<X+XA.F Y.Y.Y.Y.Y.O.U F               ",
"        l.;XXX9X9XaX].%X_.A.F Y.C.{ C.Y.O./ U               ",
"        l.:XOXf.a.7X-X(.^.P.Q D.) Q _ J.O.O.W u             ",
"        l.dXp.v.vXvXl.l.{.=XY.F A.Y.H.O.O.O.W t .           ",
"          2.: q.nXVXcXwX{.#X@.O.U ` @.O.O.O.W t .           ",
"            # M s.:.MX3X{.'.4XY ( W W O.O.O.W t .           ",
"            >.8.y.i.VXjX.X0Xg.e.E.W.R./ / ..J - .           ",
"          . tXxXkXAXVXeX). X1.nXBXNXiXt F  .a .             ",
"          . tXxXkXAXVXk.~.$X1.VXVXhX5.. F  .a .             ",
"            . 0.mXVXVXk.~.>XdXlXQ.B . . . t 9 .             ",
"            . > ,.bXbXgX6X!.,Xj < 4.rX@X  & %               ",
"          . 2 w.n.9.e.e.*.$.1X. = k 3.&.                    ",
"          . l b.zX0 Y Y w d 4X. s r . .                     ",
"            . @ e m.O.O.G q O., c f @                       ",
"            . ^ I.;XO.O.=.-.O.AX7.9 t . .                   ",
"      . . . . ^ J.N.<.<.h ;.ZXV n 4 @ . b ;                 ",
"    1 z z 7 $ K B.S.6.6.#.} u.n N h.t.. 1.x 1               ",
"  . g 1.1.n 6 p ~ ] S.L.G.o.i 7 j.tXt.. C A g .             ",
"  . 3 v A n n 5 . . | M.Z.M.| . uXr.. . n Z 8 .             ",
"    . * n n n 5 .   . . . . . . . .   . n n 5 .             ",
"        . . . .                         . . .               ",
"                                                            ",
"                                                            ",
"                                                            ",
"                                                            "
};
