/* XPM */
static char *_6da2bf7091d4b21aab88f9d973e130dW3l7UEs8TOezOcjJ[] = {
/* columns rows colors chars-per-pixel */
"30 32 237 2 ",
"   c None",
".  c #000001",
"X  c #000101",
"o  c #000201",
"O  c #010102",
"+  c #020102",
"@  c #030202",
"#  c #010602",
"$  c #050404",
"%  c #060606",
"&  c #0B0604",
"*  c #0B0606",
"=  c #010903",
"-  c #010B03",
";  c #030D03",
":  c #010904",
">  c #100907",
",  c #130A09",
"<  c #120D08",
"1  c #170D0B",
"2  c #1A0E0B",
"3  c #1A0E0C",
"4  c #031104",
"5  c #031205",
"6  c #041405",
"7  c #041907",
"8  c #051B06",
"9  c #061E07",
"0  c #041F0B",
"q  c #0E190A",
"w  c #1D1009",
"e  c #21150D",
"r  c #2C190D",
"t  c #251511",
"y  c #251611",
"u  c #281612",
"i  c #211B11",
"p  c #331C16",
"a  c #072107",
"s  c #05210C",
"d  c #05220C",
"f  c #05260D",
"g  c #05290E",
"h  c #1D220E",
"j  c #0A320A",
"k  c #062F10",
"l  c #073913",
"z  c #083D15",
"x  c #083E15",
"c  c #123F16",
"v  c #2E271F",
"b  c #322615",
"n  c #312A21",
"m  c #352D24",
"M  c #49281F",
"N  c #4C391F",
"B  c #4A2920",
"V  c #4E2B20",
"C  c #493822",
"Z  c #513122",
"A  c #5A3220",
"S  c #523E21",
"D  c #403A30",
"F  c #483E3B",
"G  c #573E36",
"H  c #0C420C",
"J  c #0D420D",
"K  c #0E440E",
"L  c #0D460F",
"P  c #0D4811",
"I  c #0D4C12",
"U  c #0E5014",
"Y  c #0E5717",
"T  c #0D501C",
"R  c #0E5818",
"E  c #0E5918",
"W  c #0E5F1B",
"Q  c #0F5F1B",
"!  c #0C5C1F",
"~  c #195A14",
"^  c #1A5B14",
"/  c #215215",
"(  c #0F611C",
")  c #0F621D",
"_  c #1D6016",
"`  c #27731B",
"'  c #0C5F20",
"]  c #3B5C2A",
"[  c #0F6920",
"{  c #0F6A22",
"}  c #0F6D22",
"|  c #0F6E23",
" . c #107225",
".. c #107426",
"X. c #1F7E24",
"o. c #107B28",
"O. c #107A29",
"+. c #107B29",
"@. c #117C29",
"#. c #2A6B2C",
"$. c #326023",
"%. c #366526",
"&. c #3E6025",
"*. c #387126",
"=. c #73411F",
"-. c #76461F",
";. c #4F403C",
":. c #554738",
">. c #574939",
",. c #654823",
"<. c #62462A",
"1. c #734120",
"2. c #6B5021",
"3. c #675428",
"4. c #6D5429",
"5. c #745E2C",
"6. c #556624",
"7. c #456836",
"8. c #716E33",
"9. c #005676",
"0. c #7E5F43",
"q. c #6C665C",
"w. c #747976",
"e. c #807317",
"r. c #967118",
"t. c #8E5C2D",
"y. c #825330",
"u. c #8C5E30",
"i. c #895A38",
"p. c #8C5E3B",
"a. c #926432",
"s. c #986D39",
"d. c #9B713B",
"f. c #9F753E",
"g. c #A97739",
"h. c #A67E3F",
"j. c #966A47",
"k. c #A37941",
"l. c #A47B40",
"z. c #A47B41",
"x. c #A57C41",
"c. c #A87F5A",
"v. c #997D60",
"b. c #907B76",
"n. c #3B8018",
"m. c #1B8027",
"M. c #188129",
"N. c #1C8529",
"B. c #278626",
"V. c #238B29",
"C. c #288F29",
"Z. c #328821",
"A. c #338A22",
"S. c #299029",
"D. c #399525",
"F. c #3D9C27",
"G. c #389C29",
"H. c #399E29",
"J. c #3CA029",
"K. c #3FA228",
"L. c #518213",
"P. c #5C831E",
"I. c #7BB115",
"U. c #4C8F27",
"Y. c #5A9A2F",
"T. c #628135",
"R. c #718F34",
"E. c #40A228",
"W. c #41A429",
"Q. c #6DB621",
"!. c #898900",
"~. c #A28918",
"^. c #A5941D",
"/. c #B0B000",
"(. c #B1B100",
"). c #B9A010",
"_. c #B8AC13",
"`. c #9B813C",
"'. c #B19223",
"]. c #B5952D",
"[. c #B49335",
"{. c #B89C31",
"}. c #BB9C31",
"|. c #C09D37",
" X c #C19E38",
".X c #C39D3C",
"XX c #C7AE28",
"oX c #D0BB29",
"OX c #C7A931",
"+X c #E0BB3C",
"@X c #8AC719",
"#X c #DCD008",
"$X c #DCCC19",
"%X c #E1D314",
"&X c #EAE10F",
"*X c #F1EB0A",
"=X c yellow",
"-X c #FDFC02",
";X c #DFCD3A",
":X c #EAD029",
">X c #EBCC32",
",X c #AD8344",
"<X c #BA8E48",
"1X c #B8925C",
"2X c #B1BB4E",
"3X c #948261",
"4X c #869465",
"5X c #979164",
"6X c #918173",
"7X c #AC906D",
"8X c #BB9660",
"9X c #A58F71",
"0X c #A19075",
"qX c #C69D42",
"wX c #C59549",
"eX c #C8994B",
"rX c #D09F4D",
"tX c #D1A04D",
"yX c #D0A04E",
"uX c #DEAC52",
"iX c #C6A274",
"pX c #C7A477",
"aX c #C8A677",
"sX c #5A6B98",
"dX c #37C4F1",
"fX c #9EA593",
"gX c #D3B289",
"hX c #D5B48B",
"jX c #E4C59C",
"kX c #E7CA9F",
"lX c #D8C5AD",
"zX c #E8CBA2",
"xX c #FFE6BD",
"cX c #98A9CE",
"vX c #FFEAC8",
"bX c #E8F2EA",
"nX c #FFF9EF",
/* pixels */
"                                                            ",
"                                                            ",
"                                                            ",
"                                                            ",
"                                                            ",
"              k.s.1.+.U ` W.W.+.                            ",
"          l.rX:X%Xf.J.^ ` W.W.J.J.S.+.                      ",
"        l.$X.X XOXeXW.^ ` W.W.W.W.H.S.+.J                   ",
"      [.XX$X.X<XqX>X@Xn.` Z.W.W.W.W.H.V.E I                 ",
"    d.].=X,XwXyX+X=X*XQ.` ^ W.D.D.F.W.W.+.Y P               ",
"    =.r.=XuXt.u.}.=Xl.Y.` ^ W.J J ` W.W.+.+.Q J             ",
"        -.x.pXgXaXh.=X}.R.Z.K E.E.C.@.@.+.+.Q J             ",
"          b 7XjXkXiX=X}.T.m.[ _ X.M.+.+.+.+. .( J           ",
"          . 0.v.0XzX=X}.8.$.( J E } +.+.+.+.+.} J           ",
"          n G ;.q.xX&X|.a.,.] 7.7.#.} } ' [ ..} J           ",
"        . hXsXcXnXxXl.yXg.p.hXxXxX4XJ J . j Q } J .         ",
"        . hXsXcXnXxX1.#X).j.xXxX8XS . .   . a J J .         ",
"          v 6XlXvXxX1.#X;XfXdX1XC < .       = 7 J .         ",
"            :.9XzXzXc.'.oX2X9.N 4.e.!.        ; 9           ",
"            . >.3X5X5X<.~._.. 6 5.^.(.          .           ",
"              = 7 K K 5 3.`.: J 5 . .                       ",
"            . z +.+.+.0 z +.+.J 5 .                         ",
"          . (.I.+.+.+.0 w.bXbX# .                           ",
"      . . . L.P.&.+.+.0 F b.b.. l k                         ",
"    . & r . ! *.6.%.%.q y V A r c z g                       ",
"    . w 1.& T B.U.2.2.h i Z i.y.e z ! .                     ",
"    . w 1.B , / W.W.W.N.z D xXhXm z ! .                     ",
"        . B M y s @.@.s . . $ $ . . .                       ",
"          1 1 >   f f : . . . p p 3 .                       ",
"          . .     . . . . . . u u 2                         ",
"                            . . .                           ",
"                                                            "
};
