/* XPM */
static char *_e81a757f0a34fb7be3fedbcd47a94646tySc6xskr5ZWQwd[] = {
/* columns rows colors chars-per-pixel */
"30 32 231 2 ",
"   c None",
".  c #000001",
"X  c #000101",
"o  c #010201",
"O  c #010301",
"+  c #010302",
"@  c #020402",
"#  c #090503",
"$  c #030D03",
"%  c #010904",
"&  c #140B09",
"*  c #100E0C",
"=  c #031104",
"-  c #031406",
";  c #061E07",
":  c #041D09",
">  c #041C0A",
",  c #061D0B",
"<  c #041F0B",
"1  c #1D1009",
"2  c #231B0F",
"3  c #251511",
"4  c #241E11",
"5  c #2D1914",
"6  c #2E1914",
"7  c #251F1A",
"8  c #331C16",
"9  c #381F18",
"0  c #072107",
"q  c #072407",
"w  c #05250D",
"e  c #09230B",
"r  c #0F270A",
"t  c #07280A",
"y  c #092B09",
"u  c #1B2B07",
"i  c #0A350C",
"p  c #0A370C",
"a  c #1A2412",
"s  c #083D15",
"d  c #083E15",
"f  c #3E3E01",
"g  c #2A2017",
"h  c #262C12",
"j  c #292D12",
"k  c #28221B",
"l  c #29231C",
"z  c #3A2116",
"x  c #342F16",
"c  c #303412",
"v  c #2E2B2B",
"b  c #3A2720",
"n  c #352C23",
"m  c #29332C",
"M  c #323D20",
"N  c #3E3028",
"B  c #3F392F",
"V  c #3B3B3C",
"C  c #412C16",
"Z  c #492919",
"A  c #502D16",
"S  c #583219",
"D  c #502D20",
"F  c #532F20",
"G  c #443121",
"H  c #42372B",
"J  c #503C2B",
"K  c #623720",
"L  c #0D410D",
"P  c #0D420D",
"I  c #0B4212",
"U  c #094317",
"Y  c #0E4D12",
"T  c #0E4E13",
"R  c #1D4F15",
"E  c #0E5014",
"W  c #0E5416",
"Q  c #0D561D",
"!  c #0E5D1A",
"~  c #0E5C1B",
"^  c #0E5E1B",
"/  c #0F5F1B",
"(  c #0C5C1F",
")  c #155111",
"_  c #1A5B14",
"`  c #215215",
"'  c #0F611C",
"]  c #0E651E",
"[  c #0F671F",
"{  c #216818",
"}  c #2D7E1E",
"|  c #317B1F",
" . c #3A4722",
".. c #344923",
"X. c #0F6920",
"o. c #0E6823",
"O. c #0F6D22",
"+. c #0F6E23",
"@. c #0E6F25",
"#. c #0F7B29",
"$. c #1A7528",
"%. c #107A28",
"&. c #107B29",
"*. c #117C29",
"=. c #2E6122",
"-. c #296E27",
";. c #795B17",
":. c #574222",
">. c #4D5723",
",. c #425E25",
"<. c #495528",
"1. c #4F453B",
"2. c #4E473B",
"3. c #734120",
"4. c #7F5028",
"5. c #785D2D",
"6. c #64453D",
"7. c #745F3D",
"8. c #456836",
"9. c #41783B",
"0. c #606723",
"q. c #767B3A",
"w. c #004059",
"e. c #26474A",
"r. c #625341",
"t. c #6B5A46",
"y. c #967118",
"u. c #8D5F3B",
"i. c #8E6130",
"p. c #8D6032",
"a. c #9A7739",
"s. c #9C723C",
"d. c #A57D3F",
"f. c #937449",
"g. c #A47B41",
"h. c #A57D40",
"j. c #A87F5A",
"k. c #897C66",
"l. c #937D61",
"z. c #188129",
"x. c #1C8529",
"c. c #238B29",
"v. c #308420",
"b. c #308922",
"n. c #378B23",
"m. c #348C22",
"M. c #2E9429",
"N. c #399525",
"B. c #359A29",
"V. c #3B9F29",
"C. c #3CA029",
"Z. c #6CAE19",
"A. c #40A329",
"S. c #41A429",
"D. c #5EB223",
"F. c #478946",
"G. c #898900",
"H. c #938939",
"J. c #849E39",
"K. c #BB9C31",
"L. c #C2A72A",
"P. c #C0A42D",
"I. c #C6AD28",
"U. c #C7AE28",
"Y. c #D1BD21",
"T. c #D2BD21",
"R. c #D4BD25",
"E. c #C6BA3A",
"W. c #D9B836",
"Q. c #D9B33F",
"!. c #97C616",
"~. c #DCD008",
"^. c #DACA1A",
"/. c #DCCA1C",
"(. c #E6DC0F",
"). c #E8DE10",
"_. c #E6E600",
"`. c #F3EE04",
"'. c #F6F206",
"]. c #FEFE00",
"[. c yellow",
"{. c #EAE013",
"}. c #F5E519",
"|. c #D6C122",
" X c #EFD629",
".X c #E2C430",
"XX c #F5EC23",
"oX c #AC844C",
"OX c #B18645",
"+X c #B28745",
"@X c #B38745",
"#X c #B58945",
"$X c #BA8E48",
"%X c #A69C43",
"&X c #B28C52",
"*X c #968C63",
"=X c #AE8661",
"-X c #B9946F",
";X c #BD9770",
":X c #C39146",
">X c #CE9C4A",
",X c #CD9F4C",
"<X c #D4BC44",
"1X c #DEAB52",
"2X c #DEAC52",
"3X c #D2B17F",
"4X c #F4E551",
"5X c #F5E366",
"6X c #31529C",
"7X c #2993B5",
"8X c #77ABA6",
"9X c #AC9C8F",
"0X c #B29F8F",
"qX c #BFAD8E",
"wX c #B9ADA9",
"eX c #D1B083",
"rX c #D3B188",
"tX c #D5B48B",
"yX c #CEBB9D",
"uX c #D1B793",
"iX c #A3CCAD",
"pX c #E8CB9E",
"aX c #E8CBA2",
"sX c #EACDA4",
"dX c #F2D7AE",
"fX c #FCE2B9",
"gX c #FFE6BD",
"hX c #FFE7C1",
"jX c #FFEBCB",
"kX c #FFECCE",
"lX c white",
/* pixels */
"                                                            ",
"                                                            ",
"                                                            ",
"                                                            ",
"                                                            ",
"                    g.4.,.O.P S.S.S.B.&.                    ",
"                +X1X'.`.!.b.P S.S.S.A.C.#.#.                ",
"              I.R.$XI..XE.J.} { N.S.S.S.M.z.[               ",
"            L.T.R.$Xg.W.Q.%XS.P m.S.S.S.M.z.o.W             ",
"          s.(.|.#X>XoX{.T.H.D.) v.N.N.N.&.&.&.O.P           ",
"          3.~. X:X3.tXXXT.K.[.S._ P P P &.&.&.O.P           ",
"            d.p.u.rXtX&Xh.K.[.*.E ~ &.&.&.&.&.&.&.P         ",
"              C J tXdXeX<X^.P.q.-.~ ~ &.W W [ &.&.P         ",
"              . g j.k.uX4X).g.p.=.~ ~ ' P y I [ &.q         ",
"              k N 6.V yX5X/.+X3.<.9.F.8.P = 0 T O..         ",
"            . t.9X6XlXkX3X+X2X3.;XsXgXgXP = 0 P P .         ",
"            . t.9X6XlXkX-Xy.[.. qXgXpXg..   . > &..         ",
"              7 2.0XjXhX-Xy.[.. 7X8Xf.2 .   . - T .         ",
"                l r.aXaX=Xy.[.. w.e.:.5.G.    $ ;           ",
"                  . l.*X7.;.}.. > > j a.[.      .           ",
"                    % p t x ,X# Q ~ p .                     ",
"                  . &.&.&.( . 3.1 d ( .                     ",
"                f _.&.&.U w @.$.> d ( .                     ",
"              . u Z.>.>.h m iXiXm a M 5 .                   ",
"              . e c.0.0.c v wXwXv 3 G ...                   ",
"                r n.S.V.R & F F & 4  .o..                   ",
"                  . S.x.d 1 3.3.1 ` | .                     ",
"                    @ . . B fXrXn . .                       ",
"                  . A z 8 b 2.H * .                         ",
"                  . 3.K F 9 . . .                           ",
"                  . S S Z 5 . .                             ",
"                    . . . .                                 "
};
