/* XPM */
static char *_4cdea31db3e423bc74c9a2bde586346XJBw7fUbye6QOTo7[] = {
/* columns rows colors chars-per-pixel */
"30 32 164 2 ",
"   c None",
".  c #000101",
"X  c #010B03",
"o  c #0B0605",
"O  c #140A09",
"+  c #120A06",
"@  c #041F0B",
"#  c #021307",
"$  c #1D1009",
"%  c #181815",
"&  c #21130C",
"*  c #2C190D",
"=  c #351E0F",
"-  c #281612",
";  c #281915",
":  c #371F18",
">  c #381F18",
",  c #09270A",
"<  c #0A330A",
"1  c #0B3A0C",
"2  c #062F10",
"3  c #073311",
"4  c #3A2111",
"5  c #282712",
"6  c #002838",
"7  c #39312D",
"8  c #3B3B3C",
"9  c #49281F",
"0  c #4A2E16",
"q  c #563119",
"w  c #62371D",
"e  c #4A2920",
"r  c #4C3525",
"t  c #583921",
"y  c #5B3E35",
"u  c #6D3D20",
"i  c #0D430D",
"p  c #0B4016",
"a  c #0E4D12",
"s  c #134C12",
"d  c #0E5315",
"f  c #0D5D1D",
"g  c #155414",
"h  c #1A5A14",
"j  c #234D15",
"k  c #215215",
"l  c #38491E",
"z  c #0F611C",
"x  c #1E6216",
"c  c #29771C",
"v  c #0F6B22",
"b  c #0F7B29",
"n  c #107426",
"m  c #107B29",
"M  c #1A7828",
"N  c #4A401C",
"B  c #49591F",
"V  c #67521A",
"C  c #767601",
"Z  c #4F4A2B",
"A  c #4D5723",
"S  c #425E25",
"D  c #5A5022",
"F  c #48443D",
"G  c #584A3B",
"H  c #744220",
"J  c #7D5A36",
"K  c #695128",
"L  c #606723",
"P  c #404041",
"I  c #5B4E4D",
"U  c #685845",
"Y  c #697747",
"T  c #5D5460",
"R  c #626263",
"E  c #767676",
"W  c #865C39",
"Q  c #817E3A",
"!  c #9E7536",
"~  c #AD7B3B",
"^  c #966A47",
"/  c #8B6849",
"(  c #A47B41",
")  c #AC7C40",
"_  c #1C8529",
"`  c #2D8421",
"'  c #348B22",
"]  c #328721",
"[  c #2B9129",
"{  c #359A29",
"}  c #3B9B27",
"|  c #3DA129",
" . c #4C9A1E",
".. c #66AC1D",
"X. c #5A9A2F",
"o. c #41A429",
"O. c #53AD25",
"+. c #61824E",
"@. c #7D8E5E",
"#. c #78905C",
"$. c #6B9556",
"%. c #7B8B71",
"&. c #AB8B17",
"*. c #B9A010",
"=. c #819732",
"-. c #B6982F",
";. c #AD863E",
":. c #B1813F",
">. c #B69732",
",. c #BB9B32",
"<. c #BF963C",
"1. c #8FB821",
"2. c #85A33A",
"3. c #D2BD21",
"4. c #CAA535",
"5. c #D6B339",
"6. c #8AC719",
"7. c #9AC224",
"8. c #C8C800",
"9. c #DCD008",
"0. c #DCCC19",
"q. c #E7DC12",
"w. c #D0E80A",
"e. c #F1EB0A",
"r. c yellow",
"t. c #F6F206",
"y. c #F8EC14",
"u. c #E9EA05",
"i. c #EED42B",
"p. c #F2DF20",
"a. c #F3EA23",
"s. c #FCF52B",
"d. c #9F9D45",
"f. c #A88347",
"g. c #BA8D47",
"h. c #B89040",
"j. c #B28C5A",
"k. c #A08769",
"l. c #A28260",
"z. c #BD9866",
"x. c #B2A77B",
"c. c #C7974A",
"v. c #D3A34F",
"b. c #D1AA4F",
"n. c #D8A750",
"m. c #DEAC52",
"M. c #E3B945",
"N. c #D2B17F",
"B. c #C7A47C",
"V. c #E0CB46",
"C. c #657DB5",
"Z. c #00BAFF",
"A. c #838394",
"S. c #AF9686",
"D. c #B1B3B2",
"F. c #D5B48A",
"G. c #DEBF96",
"H. c #DFC097",
"J. c #E0C198",
"K. c #F4D9AF",
"L. c #F7DCB3",
"P. c #FFE6BD",
"I. c white",
"U. c #E8F2EA",
/* pixels */
"                                                            ",
"                                                            ",
"                                                            ",
"                                                            ",
"              ;.! H M g c } o.o._ m                         ",
"          ( v.i.q.( ( X.c h o.o.o.[ m m                     ",
"        ( t.,.;.h.n.n.b.2.] s o.o.| | | b d                 ",
"      >.0.r.5.c.c.g.p.p.7.' i o.o.o.o.o.m v d               ",
"    ( ,.r.p.M.c.:.( r.q.1.' i o.] c ` [ m m f 1             ",
"      -.u.v.v.) W f.e.>.=. .g } x s d m m m z 1 .           ",
"        H ( ( z.F.F.( ( 3.w.o.i ' [ m m m m m f .           ",
"            . U H.P.F.a.3.Q m m d z m m m m m f .           ",
"            . r W F K.s.3.f.d.m d a f m m m m v < .         ",
"            G I T E P.V.4.g.~ $.#.@.+.z z n m v i .         ",
"          . k.A.C.I.P.j.<.4.H H.L.K.x.< < f n v < .         ",
"          . k.A.C.I.P.^ *.9.H P.P.N.J . . < f f .           ",
"            . U J.P.P.^ *.y.m.Z.%.t . .   . , < .           ",
"              ; G G.G.B.f.&.y.6 % K >.8.    X X             ",
"              . % U Y Y Z V i.. 3 l V C                     ",
"            & 7 8 . i a , 5 d.. p 3 . .                     ",
"          . q S.D.X i v p , m % o .                         ",
"          . q 4 @ m m m S D m I.P . .                       ",
"            o j ..u.m m p F U.y e & . .                     ",
"            . k O.6.A A N r R e t q = . .                   ",
"            . s { o.L L L B 2 ; w W J * .                   ",
"        + + . 3 M } o.o.o.{ _ # 0 / l.u .                   ",
"    . $ H H $ . @ m o.o.o.o.o.m @ . O e .                   ",
"      $ H e 9 9 : . . . . . . . . - : .                     ",
"        & e e e > .             . o O                       ",
"        . - - - & .               .                         ",
"          . . . .                                           ",
"                                                            "
};
