/* XPM */
static char *effb2b638c2840afe475b4773cd7ad62uSM7nfUzxFd1TUqp[] = {
/* columns rows colors chars-per-pixel */
"32 32 155 2 ",
"   c black",
".  c #6A5136",
"X  c #6E553B",
"o  c #725537",
"O  c #71563A",
"+  c #725A3E",
"@  c #7F5E3A",
"#  c #5D5D5E",
"$  c #755D42",
"%  c #785E42",
"&  c #7C6145",
"*  c #7E6549",
"=  c #7F6B4E",
"-  c #6B6B6D",
";  c #815F3B",
":  c #83613B",
">  c #90673C",
",  c #846647",
"<  c #866847",
"1  c #8C6944",
"2  c #846748",
"3  c #84694B",
"4  c #8E6C48",
"5  c #926D46",
"6  c #986F46",
"7  c #926E49",
"8  c #987047",
"9  c #95714B",
"0  c #9A744D",
"q  c #856D51",
"w  c #846F58",
"e  c #8B7052",
"r  c #857059",
"t  c #89725A",
"y  c #8F795B",
"u  c #937554",
"i  c #9A7551",
"p  c #9C7A55",
"a  c #927D5E",
"s  c #A2794D",
"d  c #A27B54",
"f  c #AB7F53",
"g  c #A27E5A",
"h  c #AB7D5B",
"j  c #937F60",
"k  c #97805F",
"l  c #98805F",
"z  c #AB8155",
"x  c #A4825B",
"c  c #AC8459",
"v  c #B0875B",
"b  c #B0895D",
"n  c #948061",
"m  c #998364",
"M  c #978966",
"N  c #8F8A71",
"B  c #A58763",
"V  c #A78962",
"C  c #A98B64",
"Z  c #A48B68",
"A  c #B18F6B",
"S  c #A2916F",
"D  c #B39064",
"F  c #B8986D",
"G  c #AB9670",
"H  c #A69977",
"J  c #AD9977",
"K  c #B79A75",
"L  c #BA9C71",
"P  c #BC9D7A",
"I  c #BCA67E",
"U  c #C29C76",
"Y  c #898A8A",
"T  c #AFAA86",
"R  c #B4A582",
"E  c #BAA781",
"W  c #B9A985",
"Q  c #B0AC88",
"!  c #BCAE88",
"~  c #B9B38D",
"^  c #B4B096",
"/  c #BCB792",
"(  c #A7A8A8",
")  c #B4B5B6",
"_  c #C4AE86",
"`  c #C2AF89",
"'  c #C5B48D",
"]  c #CEB68B",
"[  c #CCB591",
"{  c #C2BA95",
"}  c #CFBE96",
"|  c #C2BD9A",
" . c #C4B393",
".. c #D1B791",
"X. c #D6BB97",
"o. c #C3BEA5",
"O. c #C6C19E",
"+. c #C9C29C",
"@. c #D5C39E",
"#. c #D4C5A1",
"$. c #DBC5A2",
"%. c #D4CDA7",
"&. c #DACAA1",
"*. c #DCCEA9",
"=. c #D6D0AC",
"-. c #DDD4AD",
";. c #DFD8AF",
":. c #D3CFB5",
">. c #DCD6B3",
",. c #DBD8BA",
"<. c #E0D4AE",
"1. c #E3DCB4",
"2. c #E5DEB8",
"3. c #E9E1B6",
"4. c #E7E1BA",
"5. c #E9E3BC",
"6. c #BFBFC1",
"7. c #DFDDC0",
"8. c #000000",
"9. c #000000",
"0. c #ECE6C2",
"q. c #EEE8C3",
"w. c #EEE9CB",
"e. c #F1EBC5",
"r. c #F4EECB",
"t. c #F6F1CD",
"y. c #F8F2CF",
"u. c #EFEAD0",
"i. c #EFEBDA",
"p. c #F3EED2",
"a. c #F1EDDB",
"s. c #F7F3D0",
"d. c #F3F3D5",
"f. c #F4F2D4",
"g. c #F1F0D2",
"h. c #F9F4D1",
"j. c #F9F5D3",
"k. c #F3F0DD",
"l. c #F5F1DF",
"z. c #F9F7DA",
"x. c #F9F6D8",
"c. c #FBF9DA",
"v. c #FCFADC",
"b. c #F6F2E0",
"n. c #F7F5E4",
"m. c #F9F6E1",
"M. c #F8F5E0",
"N. c #FBF7E5",
"B. c #F9F7E7",
"V. c #FFFCE2",
"C. c #FEFDE2",
"Z. c #FFFCE8",
"A. c #FFFFEB",
"S. c #FFFFE8",
"D. c white",
/* pixels */
"8.w + & & & & & & & & & & & & & & & & & & & & & & & & & & $ t 8.",
"w 2 7 s s s s s s s s s s s s s s s s s s s s s s s s s s s 0 t ",
"+ , 9 9 9 9 9 9 9 9 9 9 9 9 9 9 9 9 9 9 9 9 9 9 9 9 9 9 9 0 9 $ ",
"$ , 7 & % % % % % % % $ $ % % % % % % % % % % % $ % % % % < 4 % ",
"$ , 4 & 1 : : : : : : : : : : : : : : : : : : : : : : @ $ , 7 $ ",
"$ , 4 & i 9 5 7 7 7 7 7 7 7 7 7 7 7 7 7 7 7 7 7 7 7 5 ; $ 2 7 $ ",
"$ , 4 & e 3 , 2 , & & & , , & & & & & & & & , , & , % o $ 2 7 $ ",
"$ , 4 & 3 & % $ * j a n q 3 n a a a j n j n * e n a a . X 3 4 $ ",
"$ , 4 & p 0 7 0 E 5.0.e.} ` 5.5.0.0.5.2.4.5.I @.r.0.2.G & , 7 $ ",
"$ , 4 , c z s b &.y.g.,.-.4.q.r.f.x.c.s.r.0.2.=.7.d.t.} 3 , 7 $ ",
"$ , 4 * p 0 0 9 x ` ! T | <.-.1.3.4.s.r.1.1.4.{ M E ' 4 + 3 7 $ ",
"$ , 4 & e 3 , & 4 Z E 1.1.0.u.o.N o.r.w.w.^ N :. .4 & O $ 2 7 $ ",
"$ , 4 & 3 & & e R 5.2.;.4.m.D.Y   Y S.n.D.#   ) S.n O . + 3 4 $ ",
"$ , 4 & p 0 x ..q.h.e.;.4.m.D.6.- 6.S.N.D.( - 9.V.C 1 ; $ 2 7 $ ",
"$ , 4 , c f U 4.r.$.#.;.4.p.i.l.N.l.p.p.a.k.b.a.w.] d : $ 2 7 $ ",
"$ , 4 * p 0 A 0.0.h K 1.4.e.5.%.~ %.t.t.q.q.q.5.+./ I 1 + 3 7 $ ",
"$ , 4 & g d B 4.q.[ @.1.4.t.y.1.| 1.x.c.V.S.S.v.=.O.-.p + 3 7 $ ",
"$ , 4 & g c V 1.y.h.e.;.4.t.t.y.h.t.r.r.h.x.x.x.h.y.1.u + 3 7 $ ",
"$ , 4 & u i m -.X.$.q.;.4.t.y.>.>.h.y.y.t.r.r.r.r.t.1.e X 3 7 $ ",
"$ , 4 & q % j @.h P t.2.1.0.y.2.O.| | | 2.y.t.t.t.0.;.q X 3 4 $ ",
"$ , 4 & p 5 V -.@.<.t.r.2.1.4.5.=.{ { { =.4.4.5.5.1.I < + 3 7 $ ",
"$ , 4 & g s D 2.h.h.e.0.r.0.0.0.q.e.e.e.q.2._ F L L f > % , 7 $ ",
"$ , 4 & p 0 i I 5.e.4.e.t.t.t.t.t.t.t.y.y.[ 0 6 8 0 0 : $ 2 7 $ ",
"$ , 4 & p 0 5 x 5.*.I 4.2.2.4.2.q.q.2.2.e.K 1 9 9 9 7 ; $ 2 7 $ ",
"$ , 4 & e 3 & l 0.#., S Q H k W q.{ a ' e.J & 2 , 2 , O $ 2 7 $ ",
"$ , 4 & 3 & $ * n y $ $ = & O 3 m q O q m 3 $ % % % $ . + 3 4 $ ",
"$ , 4 * p i 9 9 7 7 0 0 9 0 0 9 5 9 0 9 1 % 2 9 0 0 9 : $ 2 7 $ ",
"$ , 4 & x v c c c c c c c c c c c c c c p 3 e p z c z 0 $ , 7 $ ",
"$ , 7 & , 2 , , , , , , , , , , , , , , & & & & , , , & & < 7 % ",
"+ , 7 7 4 4 4 4 4 4 4 4 4 4 4 4 4 4 4 4 4 4 4 4 4 4 4 4 4 7 4 $ ",
"w 2 , , , , , , , , , , , , , , , , , , , , , , , , , , , , 3 r ",
"8.w + $ $ $ $ $ $ $ $ $ $ $ $ $ $ $ $ $ $ $ $ $ $ $ $ $ $ + w 8."
};
