/* XPM */
static char *_ad1ae98355d4253c98f8c8a69b57bdcBpXmc6GBWtYovW2z[] = {
/* columns rows colors chars-per-pixel */
"32 32 11 1 ",
"  c None",
". c #E0D8B0",
"X c #F6F0CC",
"o c #FFFFE5",
"O c #9D9877",
"+ c white",
"@ c gray6",
"# c #B98B66",
"$ c #C89D79",
"% c #A87F5D",
"& c #947054",
/* pixels */
"                                ",
"                                ",
"                                ",
"                                ",
"                                ",
"                                ",
"                                ",
"                                ",
"         .... ......... ....    ",
"        .XooX.XXoooXXXX.XooX.   ",
"         ..OO.....XoX...OO..    ",
"           ........X.....       ",
"         ....X++@@+X++@@+X      ",
"       #.XX..X++@@+X++@@+X      ",
"      #.XXX..X+++++X+++++X      ",
"      #.o$%..X.....X.......     ",
"      &.o%%..XXXOOXoooooXOO.    ",
"     # .XXX..XXXXXXXXooooXX.    ",
"     # .XXX..XXXXXXXXXXXXXX.    ",
"     & .$%X..XXXOXXXXXXXXXX.    ",
"       .%%XX..XXXOOOOXXXXX..    ",
"       .XXXXX..............     ",
"       .XXX.XXXXXXXXXX.         ",
"        .X.XXXXXXXXXXX          ",
"        .X ......X...X          ",
"        .X  OO  .X  .X          ",
"                                ",
"                                ",
"                                ",
"                                ",
"                                ",
"                                "
};
