/* XPM */
static char *_61944c26e254ab9ed320cfe695d9f87dT2hj5bPoKvzn5ko[] = {
/* columns rows colors chars-per-pixel */
"32 32 80 1 ",
"  c black",
". c #000506",
"X c #06252A",
"o c #0B444E",
"O c #0A3D46",
"+ c #052126",
"@ c #000102",
"# c #0D4F5A",
"$ c #1CA5BB",
"% c None",
"& c #26DAF9",
"* c #1A9AAF",
"= c #09363E",
"- c #22C5E1",
"; c #1FB7D1",
": c #07282E",
"> c #147787",
", c #23D3FD",
"< c #24D8FD",
"1 c #105D6A",
"2 c #1990A5",
"3 c #188C9F",
"4 c #136F7E",
"5 c #08333A",
"6 c #031316",
"7 c #25D7F5",
"8 c #1FBFFD",
"9 c #22C9FB",
"0 c #23C9E5",
"q c #157E8F",
"w c #020C0E",
"e c #25D4F3",
"r c #20C6FD",
"t c #22C3DF",
"y c #0E525E",
"u c #23D1FD",
"i c #25DCFD",
"p c #22C6E3",
"a c #1EBCFD",
"s c #1DA9C1",
"d c #020F12",
"f c #24D3F1",
"g c #072C32",
"h c #0C4852",
"j c #188DA1",
"k c #147383",
"l c #25DAFD",
"z c #1BA1B7",
"x c #1A96AB",
"c c #051E22",
"v c #27E1FF",
"b c #26DCFF",
"n c #1DB6FF",
"m c #189CFF",
"M c #148BFF",
"N c #148DFF",
"B c #189EFF",
"V c #1FBCFF",
"C c #26DEFF",
"Z c #1591FF",
"A c #0C67FF",
"S c #0B64FF",
"D c #0C69FF",
"F c #1798FF",
"G c #1CAEFF",
"H c #0D6BFF",
"J c #1EBAFF",
"K c #19A2FF",
"L c #0B65FF",
"P c #1CB0FF",
"I c #1CB2FF",
"U c #27E0FF",
"Y c #0F75FF",
"T c #1283FF",
"R c #107BFF",
"E c #179AFF",
"W c #1BAAFF",
"Q c #117DFF",
"! c #19A0FF",
"~ c white",
/* pixels */
"             .XoO+@             ",
"          .#$%vvvv&*o@          ",
"         =-vbnmMNBVCv;:         ",
"        >v,ZASSSSSSDF<%1        ",
"      @2vGASSSSSSSSSSHJv>       ",
"      3vKSSSSSSSSSSSSSLPv4      ",
"     #vKSSSSSSSSSSSSSSSSI%5     ",
"    678LSSSSSSSSSSSSSSSSD90.    ",
"    qUYSSSSSSSSSSSSSSSSSSTv1    ",
"   wenSSSSSSSSSSSSSSSSSSSSrt@   ",
"   yvRSSSSSSSSSSSSSSSSSSSSMv=   ",
"   3uSSSSSSSSSSSSSSSSSSSSSAi4   ",
"   pGSSSSSSSSSSSSSSSSSSSSSSas   ",
"  dvESSSSSSSSSSSSSSSSSSSSSSWf   ",
"  gvNSSSSSSSSSSSSSSSSSSSSSSmvw  ",
"  hvQSSSSSSSSSSSSSSSSSSSSSSNv:  ",
"  ovQSSSSSSSSSSSSSSSSSSSSSSNv:  ",
"  :vNSSSSSSSSSSSSSSSSSSSSSSmvw  ",
"  wvESSSSSSSSSSSSSSSSSSSSSSWe   ",
"   pGSSSSSSSSSSSSSSSSSSSSSSas   ",
"   3uSSSSSSSSSSSSSSSSSSSSSAi4   ",
"   yvRSSSSSSSSSSSSSSSSSSSSMv=   ",
"   wenSSSSSSSSSSSSSSSSSSSSrt@   ",
"    qUYSSSSSSSSSSSSSSSSSSTv1    ",
"    678LSSSSSSSSSSSSSSSSD90.    ",
"     #vKSSSSSSSSSSSSSSSSI%5     ",
"      3vKSSSSSSSSSSSSSLPv4      ",
"      @jvGASSSSSSSSSSHJvk       ",
"        >v,ZASSSSSSDF<%1        ",
"         =-vlnBMN!VCv;:         ",
"          .#z%vvvv&xo@          ",
"             .XoOc@             "
};
