/* XPM */
static char *b55a5f6d21ac48e9bfb062a0609c5ecfuSfsg2L2kbac8ySx[] = {
/* columns rows colors chars-per-pixel */
"32 32 180 2 ",
"   c #695035",
".  c #725638",
"X  c #715A3F",
"o  c #7F5C3C",
"O  c #736B28",
"+  c #6B7626",
"@  c #6B7C25",
"#  c #6E633F",
"$  c #696A3B",
"%  c #756A37",
"&  c #72663F",
"*  c #78613A",
"=  c #716C3E",
"-  c #6C713B",
";  c #77743F",
":  c #70793B",
">  c #755C42",
",  c #785E42",
"<  c #766342",
"1  c #7B6145",
"2  c #7C6C43",
"3  c #7C7442",
"4  c #BE1E1B",
"5  c #AF2D1C",
"6  c #BC2216",
"7  c #B32D1D",
"8  c #B4251F",
"9  c #AA3618",
"0  c #A93918",
"q  c #A33C1D",
"w  c #B03317",
"e  c #B72620",
"r  c #BA2720",
"t  c #BC2922",
"y  c #CC1414",
"u  c #C31D1A",
"i  c #CA1B1B",
"p  c #D31415",
"a  c #DD1315",
"s  c #D61A15",
"d  c #D11718",
"f  c #D41A1B",
"g  c #D8191A",
"h  c #E31516",
"j  c #EC1517",
"k  c #E51618",
"l  c #ED1719",
"z  c #E51B1B",
"x  c #EB1A1B",
"c  c #F11B1B",
"v  c #F3171B",
"b  c #C22217",
"n  c #C4221E",
"m  c #D42617",
"M  c #D62C1A",
"N  c #DC2B1C",
"B  c #C81E20",
"V  c #E61E20",
"C  c #C22521",
"Z  c #CF2020",
"A  c #C22B23",
"S  c #CF282B",
"D  c #D22325",
"F  c #E52224",
"G  c #EB2324",
"H  c #EC2D2E",
"J  c #E62B2C",
"K  c #F42526",
"L  c #F92627",
"P  c #F42B2C",
"I  c #EC3537",
"U  c #F43234",
"Y  c #F93233",
"T  c #F73738",
"R  c #F2383A",
"E  c #F83A3C",
"W  c #894E39",
"Q  c #80553D",
"!  c #815F3B",
"~  c #895A3F",
"^  c #975F3E",
"/  c #97563C",
"(  c #A35E3F",
")  c #83613C",
"_  c #8F6E3F",
"`  c #97603F",
"'  c #92693F",
"]  c #9A613B",
"[  c #8A5D41",
"{  c #846647",
"}  c #836847",
"|  c #8B6B47",
" . c #846748",
".. c #84694B",
"X. c #8E6C48",
"o. c #976341",
"O. c #9A6543",
"+. c #926E47",
"@. c #996946",
"#. c #916E49",
"$. c #857043",
"%. c #8D7546",
"&. c #857B42",
"*. c #8C7B45",
"=. c #907C46",
"-. c #95714B",
";. c #9A764E",
":. c #9A734D",
">. c #927C48",
",. c #8C6F52",
"<. c #846F59",
"1. c #846F58",
"2. c #8C7052",
"3. c #857059",
"4. c #89725A",
"5. c #9A7752",
"6. c #9C7A55",
"7. c #A96F47",
"8. c #AD6542",
"9. c #A97047",
"0. c #A3774B",
"q. c #A2794D",
"w. c #A2784D",
"e. c #A1784D",
"r. c #A67B4E",
"t. c #A87B4F",
"y. c #A77E50",
"u. c #AB7D51",
"i. c #EB494D",
"p. c #EB4549",
"a. c #F34A4F",
"s. c #F14E52",
"d. c #F94F53",
"f. c #FB5053",
"g. c #FA565A",
"h. c #F9595D",
"j. c #F95E62",
"k. c #528F2B",
"l. c #5A8B2E",
"z. c #4E9727",
"x. c #4B9F25",
"c. c #4F9728",
"v. c #4D9A28",
"b. c #519D27",
"n. c #53942A",
"m. c #5B962D",
"M. c #549C29",
"N. c #5C9B2D",
"B. c #668228",
"V. c #618928",
"C. c #6E8224",
"Z. c #708621",
"A. c #609F24",
"S. c #68912C",
"D. c #688334",
"F. c #668434",
"G. c #77823C",
"H. c #689732",
"J. c #619931",
"K. c #4BA524",
"L. c #4DAC25",
"P. c #56A629",
"I. c #5CA62E",
"U. c #5DB92A",
"Y. c #51BD25",
"T. c #66A62F",
"R. c #60AA2D",
"E. c #8D8843",
"W. c #898444",
"Q. c #908244",
"!. c #9B814A",
"~. c #95884C",
"^. c #A18652",
"/. c #AB8155",
"(. c #A78159",
"). c #AD8359",
"_. c #A28D52",
"`. c #B0875B",
"'. c #000000",
"]. c #000000",
/* pixels */
"].<.X 1 1 1 1 1 1 1 1 1 1 1 1 1 1 1 1 1 1 1 1 1 1 1 1 1 1 > 4.].",
"<. .#.e.e.e.e.e.e.e.e.e.e.e.e.e.e.e.e.e.e.e.e.e.e.e.e.e.e.e.;.4.",
"X { -.-.-.-.-.-.-.-.-.-.-.-.-.-.-.-.-.-.-.-.-.-.-.-.-.-.-.:.-.> ",
"> { #.1 , , , , , , , , , , , , , , , , , , , , , , , , , { X., ",
"> { X.1 | ) ) ) ) ) ) ) ) ) ) ) ) ) ) ) ) ) ) ) ) ) ) o > { #.> ",
"> { X.1 5.-.+.#.#.+.#.#.-.+.o.` ` ` ^ ` o.+.-.#.#.#.+.! >  .#.> ",
"> { X.1 2...} } } } } [ [ / t n C C A n r / [ }  .{ } . >  .#.> ",
"> { X.1 ..1 , , , o W e 4 4 F G F P a.U z u 8 W , , >   X ..X.> ",
"> { X.1 5.:.-.-.^ r u k V d f D f x T f.H p a t O.-.+.! >  .#.> ",
"> { X.} ).u.r.8.A a h d D F H i.I g z P z p k n 7.y.r.' >  .#.> ",
"> { X.1 6.;.O.t a k p F p.Z y S i.J p h p x K n O.;.-.) >  .#.> ",
"> { X.1 ,...~ 4 h k y z P D B i D f a p k Y P n ~ } { . >  .#.> ",
"> { X.1 ..1 Q 4 h j k p V s.s.P F a f H E d.P 4 Q < >   X ..X.> ",
"> { X.1 5.;.O.u a k j h p F G z f f I j.h.T x u O.-.+.o >  .#.> ",
"> { X.} )./.7.A a h k l k p y f H R g.j.E L k A 9.y.0.) >  .#.> ",
"> { X.1 6.;.:.( C a h j l x G U g.g.E Y L l i ( :.;.-.) >  .#.> ",
"> { X.1 6.;.-.-.] u h k j c L Y T Y L L c k 7 @.;.:.#.) >  .#.> ",
"> { X.1 5.;.-.W.S.9 a h k j v L L c l l k w @ &.-.-.#.! >  .#.> ",
"> { X.1 2. .3 R.b.+ 5 6 s m M N x j h b 7 + v.N.2  .} . >  .#.> ",
"> { X.1 ..1 & l.- < * O q Z.A.Z.9 6 0 C.% < - l.& , >   X ..X.> ",
"> { X.1 5.-.-.%.-.#.-.%._ m.L.K.V.B.V.L.I.&.#.%.-.-.+.! >  .#.> ",
"> { X.1 6.y.r.t.r.r.r.r.r.Q.M.P.E.!.Q.N.Y.T.!.u.r.r.r.' >  .#.> ",
"> { X.1 6.;.:.;.;.;.;.:.:.-.M.U.>.:.:.*.N.P.=.:.;.;.:.) >  .#.> ",
"> { X.1 5.:.#.-.-.-.-.%.%.&.b.U.%.#.-.#.&.H.%.#.-.-.#.! >  .#.> ",
"> { X.1 2...} } } } 3 N.M.n.K.P.; } } } } 2 } } }  .} . >  .#.> ",
"> { X.1 ..1 > , , = M.K.K.z.c.K.n.& , , > > > , , , >   X ..X.> ",
"> { X.1 6.5.-.:.>.N.K.K.N.*.&.b.P.=.:.;.#.1  .-.:.:.-.) >  .#.> ",
"> { X.1 (.`.).).^.J.M.J.~.).^.P.U._.`.).5...2.6./.)./.:.> } #.> ",
"> { #.1 }  .} } } 2 2 2  . .2 b.U.3 2 } 1 1 1 1 } } } 1 1  .#., ",
"X } #.#.X.X.X.X.X.X.X.X.| $.$.M.U.G.D.$.#.X.X.X.X.X.X.X.X.#.X.> ",
"<. .} { { { { { { { {  .2 F.: M.L.m.; { { { { { { { { { { { ..3.",
"].<.X > > > > > > > > > > $ k.x.L.c.# > > > > > > > > > > X <.]."
};
