/* XPM */
static char *e8babf62a30e4199d7b056137a7ff8ccXkbxmKD6KFCyNJfO[] = {
/* columns rows colors chars-per-pixel */
"32 32 6 1 ",
"  c None",
". c #A7CDCF",
"X c #CADDDE",
"o c #DFECED",
"O c #EDF1F1",
"+ c white",
/* pixels */
".              .               .",
" .             .              . ",
"  ..          .X.           ..  ",
"  .X.         .X.          .X.  ",
"   .X..      .XoX.       ..X.   ",
"    .XX.     .XoX.      .XX.    ",
"    .XoX..   .XoX.    ..XoX.    ",
"     .XoXX...XoooX....XXoX.     ",
"      .XooXXXXoOoXXXXXooX.      ",
"      .XoooXXXoOoXXXXoooX.      ",
"       .XoOooXoOooXooOoX.       ",
"       .XXoOOooOOooOOoXX.       ",
"       .XXooOOoOOoOOooXX.       ",
"       .XXXooOoOOoOooXXXX...    ",
"    ...XXXoooooOOooooooooXXX..  ",
"  ..XXXooooOOOOOOOOOOOOOooooXX..",
"..XXooooOOOOOOOOOOOOoooooXXX..  ",
"  ..XXXooooooooOOoooooXXX...    ",
"    ...XXXXoOOoOOoOOoXXX.       ",
"       .XXoOOooOOooOOoXX.       ",
"       .XXoOooooOoooOoXX.       ",
"       .XoOooXooOoXooOoX.       ",
"      .XoOoXXXXoOoXXXoooX.      ",
"      .XooXXXXXoooXXXXooX.      ",
"     .XoXX....XoooX...XXoX.     ",
"    .XoX..    .XoX.   ..XoX.    ",
"    .XX.      .XoX.     .XX.    ",
"   .X..       .XoX.      ..X.   ",
"  .X.          .X.         .X.  ",
"  ..           .X.          ..  ",
" .              .             . ",
".               .              ."
};
