/* XPM */
static char *_e16ea17b89749c591d09a6d3bd521e4TGjZFpruUWjuc6ij[] = {
/* columns rows colors chars-per-pixel */
"30 32 178 2 ",
"   c None",
".  c #000001",
"X  c #020102",
"o  c #000302",
"O  c #0B0604",
"+  c #050D04",
"@  c #04060A",
"#  c #05080C",
"$  c #120A06",
"%  c #031004",
"&  c #031104",
"*  c #031406",
"=  c #061E07",
"-  c #031909",
";  c #041F0B",
":  c #1C100D",
">  c #0C151E",
",  c #21130E",
"<  c #2B180C",
"1  c #361E0F",
"2  c #281612",
"3  c #281E10",
"4  c #331D12",
"5  c #072107",
"6  c #072207",
"7  c #05260D",
"8  c #07290A",
"9  c #082908",
"0  c #0A2F0C",
"q  c #122D0C",
"w  c #172D0D",
"e  c #1A2B0D",
"r  c #0A310A",
"t  c #0A320A",
"y  c #0A330A",
"u  c #0C3C0C",
"i  c #163508",
"p  c #16291B",
"a  c #073F15",
"s  c #193F10",
"d  c #3B3B01",
"f  c #3A2111",
"g  c #382012",
"h  c #3D2211",
"j  c #382B15",
"k  c #3D3815",
"l  c #3E3E3F",
"z  c #4E3B1D",
"x  c #563A1E",
"c  c #4A2920",
"v  c #4C3220",
"b  c #573020",
"n  c #0D420D",
"m  c #0D430E",
"M  c #0C420F",
"N  c #0D440E",
"B  c #0B4212",
"V  c #094217",
"C  c #0D4B11",
"Z  c #0D4A12",
"A  c #0E4E13",
"S  c #0B4915",
"D  c #0C4814",
"F  c #0B4C17",
"G  c #124B10",
"H  c #1D4B14",
"J  c #0E5014",
"K  c #0D5016",
"L  c #0E5717",
"P  c #0E5818",
"I  c #0C5C1F",
"U  c #0C5D1F",
"Y  c #1A5A14",
"T  c #19581A",
"R  c #1C5F1E",
"E  c #3C4216",
"W  c #0F651E",
"Q  c #0F671F",
"!  c #28651A",
"~  c #216818",
"^  c #296B1A",
"/  c #25751D",
"(  c #27771D",
")  c #2F791E",
"_  c #2D7E1E",
"`  c #3D432B",
"'  c #385A29",
"]  c #0D6020",
"[  c #0F6E23",
"{  c #0F7124",
"}  c #187728",
"|  c #107B29",
" . c #2D6A26",
".. c #296D27",
"X. c #404001",
"o. c #73411F",
"O. c #6E6E01",
"+. c #524922",
"@. c #5C412C",
"#. c #415923",
"$. c #455C24",
"%. c #5A5022",
"&. c #6B4521",
"*. c #664C24",
"=. c #734020",
"-. c #734120",
";. c #764524",
":. c #774A28",
">. c #744B2A",
",. c #7B5C31",
"<. c #7F5F32",
"1. c #536529",
"2. c #5A6028",
"3. c #616E29",
"4. c #7B7739",
"5. c #7F7B3B",
"6. c #315273",
"7. c #5A7E4D",
"8. c #747F50",
"9. c #43746F",
"0. c #805029",
"q. c #8C5A2C",
"w. c #8A5E30",
"e. c #8F7629",
"r. c #826034",
"t. c #8E6739",
"y. c #956937",
"u. c #986D39",
"i. c #9A6F3C",
"p. c #997B3F",
"a. c #AB7A3B",
"s. c #896243",
"d. c #966A47",
"f. c #877A46",
"g. c #8B6953",
"h. c #A37A41",
"j. c #A37B41",
"k. c #A47A41",
"l. c #A47B41",
"z. c #178129",
"x. c #188129",
"c. c #288524",
"v. c #2E8923",
"b. c #288F29",
"n. c #328721",
"m. c #348C22",
"M. c #299029",
"N. c #2A9129",
"B. c #379124",
"V. c #3C9B26",
"C. c #3D9C27",
"Z. c #3CA029",
"A. c #3DA129",
"S. c #6AB31E",
"D. c #469A28",
"F. c #41A429",
"G. c #5AA46B",
"H. c #67B46C",
"J. c #B6AA0B",
"K. c #B2A83F",
"L. c #B3B837",
"P. c #C19E2C",
"I. c #C0A42D",
"U. c #B9C629",
"Y. c #D5C21E",
"T. c #C5E30D",
"R. c #F0F803",
"E. c yellow",
"W. c #B28B54",
"Q. c #869465",
"!. c #9D8E75",
"~. c #DEAC52",
"^. c #06808B",
"/. c #D1B083",
"(. c #EBD8B6",
"). c #FFE6BD",
"_. c gray92",
"`. c #EFF2F4",
/* pixels */
"                                                            ",
"                          3 k.k.k.w.-.                      ",
"                        z e.Y.Y.Y.P.a.j.                    ",
"                      q 3.L.T.T.T.U.K.I.                    ",
"                    + ) C.C.C.C.C.C.S.R.p.                  ",
"                  . F.Y n n n n n n Y F.| %.o.              ",
"                % u G n.V.V.V.V.V.V.n.G | 4.                ",
"              . % n _ V.F.F.F.F.F.F.m.n | 5.j.              ",
"              ` 8 P _ V.F.F.F.F.F.B.( P Q 1.f.              ",
"          W./.8.J | C v.A.F.F.F.F.( L | C N 8./.W.          ",
"        -.).).Q.J | | | M.F.F.F.F.M.| | | J Q.).).-.        ",
"          ;.i.2.n n . U M.F.F.F.F.M.U . n n 2.i.;.          ",
"            0.9.^.n . U x.b.F.F.b.x.U . n ^.9.0.            ",
"            h 7.H.E . S [ z.M.M.z.[ S . E H.7.h             ",
"            . O.J.q.d i J { | | { J i d q.J.O..             ",
"              . j ~.E.X.5 J | | J 5 X.E.~.j .               ",
"                  . . t 5 ; | | ; 5 t . .                   ",
"                  . ] C 5 * A A * 5 t .                     ",
"                - V $.R B 5 = = 5 t n V .                   ",
"              . p G.-...Q D 7 7 D H ' G..                   ",
"                l _.&. .} } } } } #.g.`.@                   ",
"                  . | %.-.-.-.-.-.g > 6.6.> .               ",
"                  . A.w O e D.D.D.^ 0 # (.s.1 .             ",
"                  . ~ k x +.s F.F.c.F . ).d.g .             ",
"                  . 9 *.y.r.: ! ! T a . !.@.<               ",
"                    $ <.k.t.c . . . .   . .                 ",
"                  . -.u.k.t.c .                             ",
"                  . -.u.k.,..                               ",
"                  . b :.:.v .                               ",
"                  . 2 g 4 , .                               ",
"                    . . . .                                 ",
"                                                            "
};
