/* XPM */
static char *_1cdd23f1cdc4dae82cd92919e2092b59yikellepw8srcX6[] = {
/* columns rows colors chars-per-pixel */
"30 32 157 2 ",
"   c None",
".  c #000001",
"X  c #000201",
"o  c #040404",
"O  c #060505",
"+  c #0D0706",
"@  c #020A03",
"#  c #030E04",
"$  c #030F04",
"%  c #0F0907",
"&  c #031506",
"*  c #0A1907",
"=  c #041908",
"-  c #041E0A",
";  c #041E0B",
":  c #101507",
">  c #1C100C",
",  c #26160B",
"<  c #22130F",
"1  c #351E0E",
"2  c #281612",
"3  c #261D10",
"4  c #281D11",
"5  c #331C16",
"6  c #072408",
"7  c #0A240B",
"8  c #092E09",
"9  c #082E0B",
"0  c #08320E",
"q  c #0B380B",
"w  c #0C3C0C",
"e  c #14320D",
"r  c #16370E",
"t  c #073310",
"y  c #083D15",
"u  c #083E15",
"i  c #183E17",
"p  c #392019",
"a  c #121E2C",
"s  c #3B3230",
"d  c #432616",
"f  c #462814",
"g  c #512D19",
"h  c #563118",
"j  c #583219",
"k  c #0D420D",
"l  c #0E440E",
"z  c #0E4E13",
"x  c #0E4F13",
"c  c #0B4916",
"v  c #0B4F19",
"b  c #0E5014",
"n  c #0E5416",
"m  c #0E5C1A",
"M  c #0E5C1B",
"N  c #0C5C1F",
"B  c #1A5B14",
"V  c #344214",
"C  c #374D1F",
"Z  c #235817",
"A  c #0F651E",
"S  c #29771C",
"D  c #2D761D",
"F  c #0D6020",
"G  c #0F6D22",
"H  c #0E6F25",
"J  c #196D24",
"K  c #107225",
"L  c #1C7222",
"P  c #107828",
"I  c #107B29",
"U  c #157F29",
"Y  c #157C2A",
"T  c #326A26",
"R  c #444117",
"E  c #676701",
"W  c #474E2F",
"Q  c #544021",
"!  c #595F27",
"~  c #4B463A",
"^  c #624125",
"/  c #66442A",
"(  c #724020",
")  c #724120",
"_  c #734120",
"`  c #7C4D26",
"'  c #7F4F27",
"]  c #6B5021",
"[  c #6F5027",
"{  c #675A22",
"}  c #6B4D3F",
"|  c #4B6F21",
" . c #4B6B25",
".. c #5D7429",
"X. c #3F5961",
"o. c #5F7F43",
"O. c #5F6066",
"+. c #407779",
"@. c #82532A",
"#. c #855734",
"$. c #8B5E30",
"%. c #986D39",
"&. c #97723C",
"*. c #9B703B",
"=. c #A47F2B",
"-. c #A27940",
";. c #A37A41",
":. c #A47B40",
">. c #A47B41",
",. c #168029",
"<. c #248C29",
"1. c #278E29",
"2. c #318620",
"3. c #338A22",
"4. c #348F24",
"5. c #299029",
"6. c #399525",
"7. c #3B9926",
"8. c #3D9C27",
"9. c #309629",
"0. c #359A29",
"q. c #3FA028",
"w. c #63AC1D",
"e. c #7E8B38",
"r. c #42A129",
"t. c #40A228",
"y. c #42A229",
"u. c #41A429",
"i. c #768152",
"p. c #78B85E",
"a. c #A5990B",
"s. c #B9A010",
"d. c #8C9F2E",
"f. c #A98534",
"g. c #B28F37",
"h. c #B18C3A",
"j. c #BF9535",
"k. c #9EA82A",
"l. c #A7B636",
"z. c #B6DC10",
"x. c #DCCC19",
"c. c #E2F106",
"v. c #FEFE00",
"b. c yellow",
"n. c #F7EA15",
"m. c #AD8344",
"M. c #B9945E",
"N. c #869465",
"B. c #A3986C",
"V. c #DEAC52",
"C. c #068C9D",
"Z. c #9D9D9D",
"A. c #BFAD8E",
"S. c #D5B588",
"D. c #A3CCAD",
"F. c #EACDA4",
"G. c #FFE6BD",
/* pixels */
"                                                            ",
"                                                            ",
"                                                            ",
"                                                            ",
"                                                            ",
"                                                            ",
"                          ' >.>.>.$._                       ",
"                        [ j.x.x.g.*.=.b.>.                  ",
"                      r ..l.z.z.d.e.k.b.>.;.                ",
"                    * D 6.6.6.6.6.6.w.c.m.h.f.              ",
"                  . u.B k k k k k k B u.V.n.s._             ",
"                ; P l 3.t.t.t.t.t.t.3.l U 7 Q ;.            ",
"              . & n 2.8.u.u.u.u.u.u.8.2.n & 3               ",
"              W 9 m S 7.u.u.u.u.u.u.7.S m 9 W               ",
"          M.S.i.b P x 4.u.u.u.u.u.u.4.x P b i.S.M.          ",
"        _ G.G.N.b P P 0.u.u.u.u.u.u.0.P P b N.G.G._         ",
"          _ %.! b P k G 5.u.u.u.u.5.G k P b ! %._           ",
"            ' +.C.x # F U <.u.u.<.U F # x C.+.'             ",
"            1 o.p.R . N P ,.<.<.,.P N . R p.o.1             ",
"            . E a.@.. v K P P P P K v . @.a.E .             ",
"                4 &.. 9 m P P P P m 9 . &.4                 ",
"                  . . . u P P P P u . . .                   ",
"                ; H w & 6 n P P n 6 # w H ;                 ",
"              > ~ D.k c t 0 P P 0 t c k D.X.a               ",
"            , d } Z.V J u = A A = u J V Z.O.s ,             ",
"          . / #.^ @ ] T i : q q : i T ] @ ^ #./ .           ",
"          . A.F.B.k u.{ _ h . . h _ { u.k B.F.A..           ",
"            O O O . u.t.t.t.q.q.t.t.t.u.. O O O             ",
"              . + 5 e L 9.u.u.u.u.9.L e 5 + .               ",
"                % 2 < C  .| Z Z |  .C < 2 %                 ",
"                  . p g j f . . f j g p .                   ",
"                    . . . .     . . . .                     "
};
