/* XPM */
static char *da68c40e336f4668b1b97cf8344abb4aMiJX0dPdcCoZH4ac[] = {
/* columns rows colors chars-per-pixel */
"30 32 174 2 ",
"   c None",
".  c #000001",
"X  c #020102",
"o  c #030202",
"O  c #090503",
"+  c #0B0606",
"@  c #050B03",
"#  c #030F04",
"$  c #05080C",
"%  c #100907",
"&  c #1B0F07",
"*  c #120A09",
"=  c #130A09",
"-  c #170D0B",
";  c #021307",
":  c #041605",
">  c #031909",
",  c #021A09",
"<  c #041908",
"1  c #0C131B",
"2  c #23140B",
"3  c #231B0F",
"4  c #2C190D",
"5  c #291F11",
"6  c #281915",
"7  c #062007",
"8  c #072107",
"9  c #072407",
"0  c #04200B",
"q  c #072A0B",
"w  c #092E09",
"e  c #07310F",
"r  c #0A300A",
"t  c #0A320A",
"y  c #0A330A",
"u  c #0B350B",
"i  c #0B380B",
"p  c #1D2014",
"a  c #093D11",
"s  c #083F15",
"d  c #373701",
"f  c #29231C",
"g  c #382010",
"h  c #2D3111",
"j  c #1D2C3B",
"k  c #273223",
"l  c #223C36",
"z  c #48281F",
"x  c #583219",
"c  c #703F1F",
"v  c #4A2920",
"b  c #493A2C",
"n  c #0D420D",
"m  c #0D460F",
"M  c #174E0F",
"N  c #0B4111",
"B  c #094217",
"V  c #0D4A11",
"C  c #0D4A13",
"Z  c #0A4C1A",
"A  c #124B10",
"S  c #0E5014",
"D  c #0E5416",
"F  c #0C541A",
"G  c #0C5C1F",
"H  c #1C5E15",
"J  c #3E4D04",
"K  c #24540C",
"L  c #31520D",
"P  c #254211",
"I  c #304214",
"U  c #27511D",
"Y  c #0F611C",
"T  c #0F651E",
"R  c #216818",
"E  c #256F1A",
"W  c #2A791D",
"Q  c #2D7E1E",
"!  c #317B1F",
"~  c #0E6621",
"^  c #0E6823",
"/  c #0F6A22",
"(  c #0F6E23",
")  c #0E6F25",
"_  c #107426",
"`  c #107828",
"'  c #107A28",
"]  c #107B29",
"[  c #117C29",
"{  c #72401F",
"}  c #73411F",
"|  c #764F19",
" . c #6E5213",
".. c #656B02",
"X. c #786217",
"o. c #535122",
"O. c #694721",
"+. c #724020",
"@. c #734120",
"#. c #704A24",
"$. c #7B4924",
"%. c #655124",
"&. c #6B5C29",
"*. c #547E26",
"=. c #676F3A",
"-. c #315273",
";. c #524A4A",
":. c #685846",
">. c #725E5A",
",. c #717B4C",
"<. c #805028",
"1. c #895B2F",
"2. c #8E5C2D",
"3. c #8B5E30",
"4. c #9F722F",
"5. c #916534",
"6. c #A57337",
"7. c #9E7450",
"8. c #A37A41",
"9. c #A47B41",
"0. c #1B8429",
"q. c #1C8529",
"w. c #1F8829",
"e. c #268022",
"r. c #2D8223",
"t. c #258C29",
"y. c #378B23",
"u. c #348C22",
"i. c #2E9429",
"p. c #399525",
"a. c #3B9425",
"s. c #359929",
"d. c #359A29",
"f. c #389C29",
"g. c #3B9F29",
"h. c #3CA029",
"j. c #3FA028",
"k. c #7C8202",
"l. c #7DA20B",
"z. c #6CAE19",
"x. c #71BB1F",
"c. c #4B8426",
"v. c #41A429",
"b. c #5AA46B",
"n. c #808001",
"m. c #818702",
"M. c #A4801B",
"N. c #A29F1C",
"B. c #86A107",
"V. c #8FA806",
"C. c #9BB105",
"Z. c #BFBF00",
"A. c #AF9022",
"S. c #C2A22A",
"D. c #C0A42D",
"F. c #DEB73C",
"G. c #DABF3C",
"H. c #B5D60D",
"J. c #DCD008",
"K. c #D1D31E",
"L. c #F0F803",
"P. c yellow",
"I. c #FCF708",
"U. c #ECE715",
"Y. c #859364",
"T. c #B58F69",
"R. c #B89261",
"E. c #DEAC52",
"W. c #E1B24C",
"Q. c #C9A679",
"!. c #617A93",
"~. c #FDE3BA",
"^. c #FEE4BB",
"/. c #EFF2F4",
/* pixels */
"                                                            ",
"                                                            ",
"                          <.8.8.8.3.                        ",
"                        #.4.D.D.D.A.M.                      ",
"                      @ &.G.L.L.L.L.U.W.$.                  ",
"                    . ! v.v.v.v.v.v.x.P.E.2.}               ",
"                  . a.H A A A A A A M K I.F.6.@.            ",
"                , Z R W Q Q Q Q Q Q E n z.K.S.5.            ",
"              . < T R a.v.v.v.v.v.g.e.n T l.N.              ",
"              p : i a.j.v.v.v.v.g.t.^ i n n U               ",
"          9.Q.,.t . n u.v.v.v.v.q.' G . n n ,.Q.9.          ",
"        } ~.^.Y.t . ' s.v.s.[ [ ' s 0 ' ' S Y.^.~.}         ",
"          7.R.=.t . ' 0.w.0.' D e q N ' D m =.R.7.          ",
"          } 1.%.h . ' ' ' _ Y 9 8 t C Y n I %.1.}           ",
"            x |  .. ( ( ~ F t # u n n n P X.| x             ",
"            . n.Z.. n n 8 . . n n n n n @.J.n..             ",
"              . 5 9.. . 8 n n n n B.P.P.9.5 .               ",
"                  3 . . ..C.n n C.m.d d 3                   ",
"                , B 9 9 J k.V.V.k.J 9 9 B ,                 ",
"              % k b.w C a L H.H.L a C w b.l 1               ",
"          O O 6 >./.. G ' ' ' ' ' ' G . /.!.j O O           ",
"        . @.@.;.-.-.. G ' ' ' ' ' ' G . -.-.;.@.@..         ",
"        . @.T.:.$ $ ) o.O.O.O.O.O.O.o.) $ $ :.T.@..         ",
"          4 b f ; Z i.c.*.*.*.*.*.*.c.i.Z ; f b 4           ",
"          . . . , Z i.j.v.v.v.v.v.v.j.i.Z ; . . .           ",
"                  . ^ r.y.y.y.y.y.y.r.^ + . .               ",
"              . . . . . . . . . . . . . v * .               ",
"                * z c c g .       . . . .                   ",
"                  - 2 2 &                                   ",
"                  . . .                                     ",
"                                                            ",
"                                                            "
};
