/* XPM */
static char *_f341b082d814a6ad498f902e793b68b7nifBQiDJ23tK5bI[] = {
/* columns rows colors chars-per-pixel */
"30 32 193 2 ",
"   c None",
".  c #000001",
"X  c #000302",
"o  c #070503",
"O  c #010904",
"+  c #030E04",
"@  c #110908",
"#  c #170D0B",
"$  c #031104",
"%  c #031205",
"&  c #061005",
"*  c #051906",
"=  c #051B06",
"-  c #031C0A",
";  c #041F0B",
":  c #1D100B",
">  c #1F120A",
",  c #1D120E",
"<  c #0C171C",
"1  c #20120B",
"2  c #24140A",
"3  c #261D0F",
"4  c #2C190D",
"5  c #291F11",
"6  c #2E1914",
"7  c #072107",
"8  c #05290E",
"9  c #082A09",
"0  c #092E09",
"q  c #1F2603",
"w  c #10290B",
"e  c #0A320A",
"r  c #0A330B",
"t  c #0A380E",
"y  c #0C3B0C",
"u  c #14320D",
"i  c #083712",
"p  c #0A3F10",
"a  c #083E15",
"s  c #103710",
"d  c #193F10",
"f  c #223706",
"g  c #233806",
"h  c #313101",
"j  c #3A2111",
"k  c #382711",
"l  c #392019",
"z  c #3F231B",
"x  c #3A291C",
"c  c #243128",
"v  c #39393A",
"b  c #523F1A",
"n  c #6A3C1E",
"m  c #6B3F1E",
"M  c #4A2920",
"N  c #58382C",
"B  c #603721",
"V  c #6A3C21",
"C  c #6D3D20",
"Z  c #0D420D",
"A  c #114A0F",
"S  c #0B4212",
"D  c #0D4710",
"F  c #0C4512",
"G  c #094217",
"H  c #0D4A12",
"J  c #0E4E13",
"K  c #0A4817",
"L  c #0A4C19",
"P  c #124B10",
"I  c #1D4A13",
"U  c #0E5014",
"Y  c #0E5818",
"T  c #0D591B",
"R  c #0C581D",
"E  c #0C5C1F",
"W  c #0C5D1F",
"Q  c #1C5E15",
"!  c #3F4B1E",
"~  c #29511A",
"^  c #39581F",
"/  c #0F601B",
"(  c #0F651E",
")  c #0F671F",
"_  c #28651A",
"`  c #216818",
"'  c #27731B",
"]  c #2A711C",
"[  c #2B761F",
"{  c #2D7E1E",
"}  c #0D6020",
"|  c #0E6822",
" . c #0E6D24",
".. c #0F7124",
"X. c #107225",
"o. c #107B29",
"O. c #117B29",
"+. c #147E29",
"@. c #236623",
"#. c #2E6926",
"$. c #296D27",
"%. c #386425",
"&. c #595901",
"*. c #5D5D01",
"=. c #54411A",
"-. c #72401F",
";. c #767601",
":. c #554D20",
">. c #5E4E22",
",. c #555323",
"<. c #5D5324",
"1. c #585F27",
"2. c #565E3A",
"3. c #614B25",
"4. c #6F4921",
"5. c #724120",
"6. c #734120",
"7. c #744221",
"8. c #754521",
"9. c #6E5229",
"0. c #71572D",
"q. c #7E552C",
"w. c #7B5C31",
"e. c #7E5F32",
"r. c #576238",
"t. c #6A7F2D",
"y. c #767B3A",
"u. c #7F7B3B",
"i. c #2D4C6A",
"p. c #6C5446",
"a. c #625849",
"s. c #7D7A49",
"d. c #897E0C",
"f. c #8A5C2F",
"g. c #8C5E31",
"h. c #866334",
"j. c #866336",
"k. c #8B6538",
"l. c #8E6739",
"z. c #966C39",
"x. c #986D39",
"c. c #9B703B",
"v. c #966A47",
"b. c #A37941",
"n. c #A37A41",
"m. c #A47B40",
"M. c #A47A41",
"N. c #A47B41",
"B. c #1D8629",
"V. c #1F8829",
"C. c #288D28",
"Z. c #318620",
"A. c #348C22",
"S. c #299029",
"D. c #2F9529",
"F. c #349125",
"G. c #399525",
"H. c #3B9425",
"J. c #3C9B26",
"K. c #3D9C27",
"L. c #3DA129",
"P. c #569D1B",
"I. c #7D9907",
"U. c #568029",
"Y. c #40A228",
"T. c #41A429",
"R. c #798556",
"E. c #7F8C5B",
"W. c #808001",
"Q. c #BFBF00",
"!. c #BD9E34",
"~. c #91BB29",
"^. c #9CAE34",
"/. c #8DB132",
"(. c #D9BC2B",
"). c #99CE16",
"_. c #C4C400",
"`. c #D5C21E",
"'. c #C5E30D",
"]. c #EBE20E",
"[. c #BF8F45",
"{. c #C7A471",
"}. c #C9A578",
"|. c #99C041",
" X c #3A7D8D",
".X c #039ABE",
"XX c #B1B1B1",
"oX c #DEBE93",
"OX c #91C29C",
"+X c #E9CDA5",
"@X c #EFD3A9",
"#X c #FFE6BD",
"$X c #C0CAD4",
/* pixels */
"                        . 5 m.m.m.g.6.                      ",
"                      . 3.!.].].].(.[.m.                    ",
"                    . I U./.).).).~.^.`.b.                  ",
"                    u ] Z.Z.Z.Z.Z.Z.P.'.y.                  ",
"                  O K.Q A A A A A A Q K.o.<.8.              ",
"              . ; o.Z A.T.T.T.T.T.T.A.Z o.u.b.              ",
"                % D J.Y.T.T.T.T.T.T.A.Z o.u.                ",
"          m.}.2.t ( ` G.T.T.T.T.T.T.J.{ Y ^ s.}.m.          ",
"          {.oXR.U o.Y F.T.T.T.T.T.T.G._ Y D R.oX{.          ",
"        -.+X@XE.J X.o.D.L.T.T.T.T.L.[ . X.J E.@X+X-.        ",
"          6.x.1.Z Z o.o.S.T.T.T.T.S.W . Z Z 1.x.6.          ",
"            7. X.XZ . W o.B.T.T.B./ e . Z .X X7.            ",
"            2 t.|.=.. p ( +.V.V.+.K * 0 =.|.t.2             ",
"              &.d.f.;.g S ( o.o.o.a q I.f.d.&.              ",
"                3 e._.*.f D o.o...i h _.e.3                 ",
"                  . . Q.W.; o.o.U 7 . . .                   ",
"                    . e 7 % Z Z % 7 U o..                   ",
"                  . } H y 9 + + L | @.>.} -                 ",
"                  . OXr.~ Y G G  .o.$.6.OXc .               ",
"                  # $Xp.! #.#.#.#.#.%.,.XXv                 ",
"              o , N i.< k 4.4.4.n n :.+..                   ",
"            . j v.#X. e ' T.T.T.w . w T..                   ",
"            . j v.#X. R C.T.T.& 0.q.b P .                   ",
"              > x a.  8 s d d 6 j.c.9.*                     ",
"                . .     . . . M l.m.j.4                     ",
"                            . z k.m.z.C .                   ",
"                              . w.m.l.M .                   ",
"                              . l B V M .                   ",
"                              . @ > 1 #                     ",
"                              . . . . .                     ",
"                                                            ",
"                                                            "
};
