/* XPM */
static char *b5acf33b62884906b3f88aa5a7ae98dbi66AnAnlT37lZIo1[] = {
/* columns rows colors chars-per-pixel */
"32 32 8 1 ",
"  c None",
". c black",
"X c #2CA054",
"o c #5CDCB5",
"O c #88EADB",
"+ c #A5F2F3",
"@ c #C4F2FA",
"# c white",
/* pixels */
"                                ",
"          OOOOOOo               ",
"         XXoOOO+OOOo            ",
"          XooOOO+@+OOo          ",
"          XooOOOO++@+Oo         ",
"          ooOOOOOO+++OO         ",
"         XooOOOOOOOOOOOo        ",
"         oooooooOOOooooO        ",
"        ooooO+@+oOoO+@+oo       ",
"       XoooOOOOO+OOOOOO+o       ",
"       XooOO...OOOOO...Oo       ",
"       XooO...#.OOO...#.o       ",
"       XooO.....OOO.....o       ",
"       ooOO.....OOO.....o       ",
"   O  XooOOoooooOOOoooooo   O   ",
" oOO  XoOOOOOOOOOOOOOOOOo   oOO ",
"oOO+OOOOOOOoXoOOOOOOOoXOOOOOO++O",
"ooOOOOOOOOOoX.........XOOOOOOOOO",
" ooooooOOOOOo.........oOOOOoooo ",
"  XXXXooOOOOo.........OOOOoXXX  ",
"      XoOOOOoX.......XOO+OX     ",
"      XooOOOOo.......oO++O      ",
"      XooOOOOoX.....XOO++O      ",
"      ooOOO+OOoX...XOOO++O      ",
"  O  oOOO+++OOOooooOOO++Oo      ",
" XoOOOOO+++++OOOOOOOO+@+O       ",
" XoOOOOOO+++++OOOOOOO++Oo       ",
" XooOOOOOO+++OOOOOOOOOOoo       ",
"  XooooOOOOOOOOOOOOOOOoo        ",
"   XoooooOOOOOOOOOOoooX         ",
"    XXoooooooooooooXX           ",
"      XXXXXXXXXXXX              "
};
