/* XPM */
static char *_aa104c6d24a41fcdeff805b782d15fb1QiPlRUiN3UqQkOZ[] = {
/* columns rows colors chars-per-pixel */
"32 32 11 1 ",
"  c None",
". c #005600",
"X c #079F00",
"o c #008400",
"O c #0DE300",
"+ c #6EF300",
"@ c #9FFF12",
"# c #12C400",
"$ c #54281E",
"% c #6D3527",
"& c white",
/* pixels */
"  ...XoO.    .O+  ......  .     ",
" .oooOooO....@@+..@X@+#@..O..   ",
".oo.oOO.oO#+#O+O@XO.OX@@O#o#o.  ",
"..#..XoOX#o+@@o#oo@@#@#+O+#X@X. ",
"@oooXo#oOoO@+O+@O@o#+O@+@O@+.X. ",
".o.o...oooO@X##O#o@+O+o@+XOO#O. ",
" ..o.o.o.oO#X@+OOO@O@@+@#@XO.o. ",
" .ooo.OooO#XX#@@OXo@++.O@#@OOo. ",
" .#...X#XX####OO+O#+@++O@O#@+@. ",
".....o#OoOoXO#O#O@oX@#XX++@@++. ",
"..X###oXooo.##OXO+@O@+@O#@#O@.. ",
".##o..oo##XO.XoOO++#XO@@+@++@.. ",
"#X.oXXO@OXOX#OXOOOOo.#O@@+@@O+..",
".ooXo#...oOX####O@O#O+@X+Oo@o@@o",
"o.o....O#oXXX#XOXO+@++o+#O@@@+++",
"o.o.oXXo.o#oO#OX+Xo++OO#+++O+@@.",
"  .o..o.....oXXoOOX#@Xo.@@.OX.+O",
" .o.oOoo.#.Xoo.X#XO#OO#XO++OO##.",
" .o.o.#.o.ooXoXoXXXXOoXXOo+#OO. ",
"  .oooo.#..@oXX.X#XXXXX#@O++O+. ",
"  .ooo..oX..oo#o##OO#O##XX+XOO. ",
"..o.oo...o.oXXOo.OX##X#O#oOXO+. ",
"oo..#....o#oOoooXO#OX@XXX.#Xo+#.",
"..oooo....#..ooO#XX.#oXXXoOXX@X.",
"  ..oo...ooooo.oOX.O#oo#XXooo#O.",
"  ...o....o@.o@oXo.ooo#XX##XXoXO",
" .o...o.o...#.#.XoooO...oXooOXoo",
" .ooo...o#o....o..Xo.XXXo#XoX#XX",
" ..Xo..o.#oo.oooo....o.oXXo.ooo.",
" .oo..$.......o....o.o..XoXX#.. ",
"  %..%$%.Xo.ooo...$.%.$%..oX.%  ",
"  %$%  $%..%...%oo. % %$ .O.$%  "
};
