/* XPM */
static char *a4ed567612204d3dff74f46342ac1ba8g3uXMPtumroe7uns[] = {
/* columns rows colors chars-per-pixel */
"32 32 159 2 ",
"   c #6A5135",
".  c #6E563D",
"X  c #745536",
"o  c #7F5935",
"O  c #75573B",
"+  c #73593E",
"@  c #7B5C3E",
"#  c #6C5E47",
"$  c #675F4A",
"%  c #755D42",
"&  c #795E41",
"*  c #5B6E5E",
"=  c #66624E",
"-  c #6A614D",
";  c #7B6145",
":  c #74664D",
">  c #7A6449",
",  c #786849",
"<  c #636651",
"1  c #686652",
"2  c #6C6A54",
"3  c #676D59",
"4  c #686D59",
"5  c #776950",
"6  c #64725F",
"7  c #6F725B",
"8  c #73755F",
"9  c #7C7459",
"0  c #596E60",
"q  c #46786F",
"w  c #5D7565",
"e  c #587668",
"r  c #4E7D73",
"t  c #537E74",
"y  c #617464",
"u  c #6F7762",
"i  c #6A7A64",
"p  c #627769",
"a  c #647869",
"s  c #6A7C69",
"d  c #737A62",
"f  c #797E63",
"g  c #717E68",
"h  c #825F3A",
"j  c #84613D",
"k  c #8B623F",
"l  c #846646",
"z  c #8C6642",
"x  c #866847",
"c  c #8D6945",
"v  c #836748",
"b  c #856949",
"n  c #8E6D49",
"m  c #906540",
"M  c #926B45",
"N  c #906E49",
"B  c #8B714F",
"V  c #96714B",
"C  c #9B734B",
"Z  c #826A50",
"A  c #846F58",
"S  c #8C7152",
"D  c #84745A",
"F  c #89725A",
"G  c #9B7752",
"H  c #947853",
"J  c #9D7B57",
"K  c #A07347",
"L  c #A3774A",
"P  c #A2794D",
"I  c #5E8374",
"U  c #5C887E",
"Y  c #66826F",
"T  c #658472",
"R  c #7C8D77",
"E  c #738978",
"W  c #90815F",
"Q  c #9F805A",
"!  c #A78056",
"~  c #AB8256",
"^  c #A78159",
"/  c #AE8459",
"(  c #B0875B",
")  c #808063",
"_  c #8A8261",
"`  c #0B64FF",
"'  c #0D6CFE",
"]  c #0E73FF",
"[  c #1177FD",
"{  c #107CFE",
"}  c #34929A",
"|  c #3B9FA8",
" . c #3EA1A9",
".. c #38A7B2",
"X. c #34ABBA",
"o. c #3AACBA",
"O. c #37B1BE",
"+. c #498984",
"@. c #548981",
"#. c #4C918C",
"$. c #52948C",
"%. c #599088",
"&. c #439596",
"*. c #419A9D",
"=. c #589B96",
"-. c #658F82",
";. c #43A2A4",
":. c #4FA3A2",
">. c #42A7AD",
",. c #48A8A9",
"<. c #38B2C1",
"1. c #30B4C9",
"2. c #30B8CE",
"3. c #3ABFCF",
"4. c #2EB6D1",
"5. c #28B4D9",
"6. c #2EBDDA",
"7. c #35BFD2",
"8. c #31BDD8",
"9. c #1182FF",
"0. c #138CFF",
"q. c #1493FF",
"w. c #169BFF",
"e. c #199FFE",
"r. c #1CAAF7",
"t. c #19A5FF",
"y. c #17A8FF",
"u. c #19ABFF",
"i. c #1EB7FD",
"p. c #1EBEFE",
"a. c #26BEE1",
"s. c #23BEF5",
"d. c #2AC0DC",
"f. c #35C7DF",
"g. c #1EC3FF",
"h. c #29C4E5",
"j. c #2AC3E3",
"k. c #25C6EF",
"l. c #2BC3EB",
"z. c #29C4EB",
"x. c #2BC7EA",
"c. c #2CC7E9",
"v. c #2CC4EA",
"b. c #2CC6EA",
"n. c #28C8ED",
"m. c #2EC8EC",
"M. c #28C9EF",
"N. c #30CAE4",
"B. c #30CAEC",
"V. c #21C1F7",
"C. c #27C6F1",
"Z. c #24C9F3",
"A. c #2ACBF2",
"S. c #20C7FE",
"D. c #20C5FD",
"F. c #21C9FC",
"G. c #20CBFF",
"H. c #000000",
"J. c #000000",
/* pixels */
"H.A + ; ; ; ; ; ; ; ; ; ; & @ @ @ @ & ; ; ; ; ; ; ; ; ; ; % F H.",
"A v N P P P P P P P L C H _ f i d ) W V K P P P P P P P P P C F ",
"+ v V V V V V V V M D T ;.f.m.l.b.B.3.$.g B M V V V V V V V V % ",
"% v N ; & & % & % 0 X.k.p.y.q.0.0.w.u.V.d.&.= @ & & & & & x n & ",
"% v n ; c j j ; t d.p.0.' ` ` ` ` ` ` ] e.G...< h j j @ % v N % ",
"% v n ; G V n @.h.u.' ` ` ` ` ` ` ` ` ` ` 9.g.O.7 M M h % v N % ",
"% v n ; S l t j.t.' ` ` ` ` ` ` ` ` ` ` ` ` { g.X.2 j O % v N % ",
"% v n ; v y 1.u.' ` ` ` ` ` ` ` ` ` ` ` ` ` ` { g.*.#   % b n % ",
"% v n ; S :.g.[ ` ` ` ` ` ` ` ` ` ` ` ` ` ` ` ` q.M.Y o % v N % ",
"% v n l R 8.w.` ` ` ` ` ` ` ` ` ` ` ` ` ` ` ` ` ' i.,.b @ v N % ",
"% v n & =.p.] ` ` ` ` ` ` ` ` ` ` ` ` ` ` ` ` ` ` q.b.6 O b n % ",
"% v N - | u.` ` ` ` ` ` ` ` ` ` ` ` ` ` ` ` ` ` ` ] s.q . b n % ",
"% b M p 5.q.` ` ` ` ` ` ` ` ` ` ` ` ` ` ` ` ` ` ` ` r.} $ v n & ",
"% b m U S.9.` ` ` ` ` ` ` ` ` ` ` ` ` ` ` ` ` ` ` ` e.4.4 l n % ",
"% b k @.g.{ ` ` ` ` ` ` ` ` ` ` ` ` ` ` ` ` ` ` ` ` q.b.6 l n % ",
"% b l +.p.] ` ` ` ` ` ` ` ` ` ` ` ` ` ` ` ` ` ` ` ` 0.x.* l N % ",
"% b l +.p.] ` ` ` ` ` ` ` ` ` ` ` ` ` ` ` ` ` ` ` ` 0.x.* l N % ",
"% b k @.g.{ ` ` ` ` ` ` ` ` ` ` ` ` ` ` ` ` ` ` ` ` q.x.6 l n % ",
"% b m U S.9.` ` ` ` ` ` ` ` ` ` ` ` ` ` ` ` ` ` ` ` e.4.3 l n % ",
"% b M p 5.q.` ` ` ` ` ` ` ` ` ` ` ` ` ` ` ` ` ` ` ` r.} $ v n % ",
"% v N -  .t.` ` ` ` ` ` ` ` ` ` ` ` ` ` ` ` ` ` ` ] s.r . b n % ",
"% v n & =.p.] ` ` ` ` ` ` ` ` ` ` ` ` ` ` ` ` ` ` q.b.i O b N % ",
"% v n l E 6.w.` ` ` ` ` ` ` ` ` ` ` ` ` ` ` ` ` ' i.>., @ v N % ",
"% v n l S :.p.[ ` ` ` ` ` ` ` ` ` ` ` ` ` ` ` ` 0.M.T o % v N % ",
"% v n ; n a 2.u.' ` ` ` ` ` ` ` ` ` ` ` ` ` ` { g.;.: X % v N % ",
"% v n ; Z % r a.t.' ` ` ` ` ` ` ` ` ` ` ` ` { p.X.< O   + b n % ",
"% v n ; J G S %.h.u.' ` ` ` ` ` ` ` ` ` ` 9.g.<.d V V j % v N % ",
"% v n ; ^ ( / Q -.j.g.0.' ` ` ` ` ` ` ] e.G.o.d ! / ~ V % l N % ",
"% v N ; l v v v ; w O.Z.p.t.q.9.0.w.u.D.j.*.1 ; v v l ; ; x N & ",
"+ l N N n n n n n z 9 I ;.N.A.C.C.A.7.#.s b c n n n n n n N n % ",
"A v l v v v v v v b v l 5 u p e w i 8 > l v b v v v v v v v b D ",
"H.A + % % % % % % % % % % + O O O + + % % % % % % % % % % + A H."
};
