/* XPM */
static char *_8df51a777504c7fc27b94d73a43e866SAxiSE3npSUJt0Gr[] = {
/* columns rows colors chars-per-pixel */
"32 32 191 2 ",
"   c black",
".  c #010000",
"X  c #010101",
"o  c #020000",
"O  c #030000",
"+  c #020001",
"@  c #030001",
"#  c gray1",
"$  c #040000",
"%  c #050000",
"&  c #040001",
"*  c #050001",
"=  c #060000",
"-  c #060001",
";  c #070001",
":  c #060101",
">  c #070002",
",  c #070707",
"<  c #080000",
"1  c #090000",
"2  c #080001",
"3  c #090001",
"4  c #0B0000",
"5  c #080002",
"6  c #090002",
"7  c #0A0002",
"8  c #0B0002",
"9  c #0A0102",
"0  c #0D0000",
"q  c #0F0100",
"w  c #0C0002",
"e  c #0C0102",
"r  c #0D0103",
"t  c #0E0102",
"y  c #0E0103",
"u  c #0F0103",
"i  c gray3",
"p  c #0E0E0E",
"a  c #110000",
"s  c #100102",
"d  c #130103",
"f  c #140100",
"g  c #140101",
"h  c #160105",
"j  c #190101",
"k  c #1C0101",
"l  c #1E0101",
"z  c #180104",
"x  c #190104",
"c  c #1B0105",
"v  c #190205",
"b  c #1D0206",
"n  c gray8",
"m  c #210101",
"M  c #230201",
"N  c #230202",
"B  c #240202",
"V  c #200206",
"C  c #210207",
"Z  c #240207",
"A  c #230308",
"S  c #250208",
"D  c #2D0209",
"F  c #2C0309",
"G  c #2D0309",
"H  c #300202",
"J  c #320203",
"K  c #350302",
"L  c #360302",
"P  c #370303",
"I  c #370304",
"U  c #3D0303",
"Y  c #31030A",
"T  c #32030A",
"R  c #39030B",
"E  c #3A030B",
"W  c #3B0409",
"Q  c #39040B",
"!  c #3D030C",
"~  c #3E040C",
"^  c #400304",
"/  c #450305",
"(  c #470305",
")  c #450405",
"_  c #470405",
"`  c #4B0404",
"'  c #4B0406",
"]  c #4F0405",
"[  c #41040B",
"{  c #40040D",
"}  c #41050E",
"|  c #45050D",
" . c #44040E",
".. c #45050E",
"X. c #45050F",
"o. c #4C0408",
"O. c #4A040E",
"+. c #500406",
"@. c #510407",
"#. c #520406",
"$. c #520506",
"%. c #550406",
"&. c #550407",
"*. c #570406",
"=. c #570407",
"-. c #5B0407",
";. c #5C0406",
":. c #5D0406",
">. c #5F0507",
",. c #50050F",
"<. c #53060F",
"1. c #54050D",
"2. c #55050D",
"3. c #5C0408",
"4. c #5D0508",
"5. c #5E050A",
"6. c #5F050E",
"7. c #540510",
"8. c #5B0510",
"9. c #5A0611",
"0. c #580613",
"q. c #5C0611",
"w. c #5D0611",
"e. c #5F0610",
"r. c #5C0612",
"t. c #650507",
"y. c #670507",
"u. c #630509",
"i. c #640508",
"p. c #650508",
"a. c #650509",
"s. c #680508",
"d. c #6B0509",
"f. c #69060B",
"g. c #6B060A",
"h. c #6E0508",
"j. c #6E060C",
"k. c #70060B",
"l. c #71060B",
"z. c #72060A",
"x. c #71070D",
"c. c #70070F",
"v. c #72070F",
"b. c #77070F",
"n. c #7A070C",
"m. c #79070F",
"M. c #7F070C",
"N. c #7C070F",
"B. c #600711",
"V. c #610711",
"C. c #620713",
"Z. c #650711",
"A. c #640713",
"S. c #660712",
"D. c #670712",
"F. c #6A0711",
"G. c #6C0711",
"H. c #6F0711",
"J. c #6E0713",
"K. c #690714",
"L. c #710710",
"P. c #790710",
"I. c #780711",
"U. c #7A0710",
"Y. c #7A0711",
"T. c #780712",
"R. c #7A0712",
"E. c #730812",
"W. c #730813",
"Q. c #790812",
"!. c #7E0813",
"~. c #7B0814",
"^. c #82070C",
"/. c #81070F",
"(. c #86070C",
"). c #86070F",
"_. c #88070E",
"`. c #81080E",
"'. c #84080D",
"]. c #85080D",
"[. c #8A080F",
"{. c #820810",
"}. c #840811",
"|. c #870810",
" X c #800814",
".X c gray82",
"XX c #D2D2D2",
"oX c gray83",
"OX c #F1F1F1",
"+X c gray95",
"@X c #FDFDFD",
/* pixels */
"                                                                ",
"                                                                ",
"                                                                ",
"                                                                ",
"                                                                ",
"                                                                ",
"                          0 k       7 k                         ",
"                          +.(.U ) i.y./.j                       ",
"                g h.' M L M.Q.m.L.Z._.P.:.( g                   ",
"                k `.W./.P.<...} A C ..w.P.(.L                   ",
"                  :.W.0.Y 7 * d * * * D V.z.d                   ",
"                  :.~.R   * *   * * *   O.J.m.-.*               ",
"              7 L x.<.v 7 *     *     0 W w.P.+.                ",
"              +.{.K.D   * *         *   v Z.f.*                 ",
"              j j.w.0   *               7 2.u.*                 ",
"                y.0.v 7           * * *   Y !.]                 ",
"                f.w.C *                 v ..J.f.7               ",
"              J x.7.0               *   0 ~ M.M                 ",
"              ) [.Z.R 0             *   7 6.*.                  ",
"                ' P.D *               * b J.*.                  ",
"                7 z.0.v   * *     * * 0 ! Z.|.4.                ",
"                  i. X[ *   7     * 7 d 2.4.*.+.                ",
"                * 4.i.f.} h Z S 0 7 Y ..P.^                     ",
"                    7 z.|.x.Z.F.V.V.b.].].(                     ",
"                      M B I *.+.W o.J 0 g                       ",
"                                                                ",
"                                                                ",
"                                                                ",
"                                                                ",
"                                                                ",
"                                                                ",
"                                                                "
};
