/* XPM */
static char *_2ac30c79a794f7c92141007d16ea072MYE8Z9al6Q2lt5PS[] = {
/* columns rows colors chars-per-pixel */
"32 32 10 1 ",
"  c None",
". c #C31415",
"X c #F92D2D",
"o c #F96B71",
"O c #EE1718",
"+ c #E21516",
"@ c #50AE26",
"# c #4A9D25",
"$ c #5ACD27",
"% c white",
/* pixels */
"                                ",
"                                ",
"                                ",
"                                ",
"                                ",
"                                ",
"              .......           ",
"           ...XXXXoXO..         ",
"         ..OX....OXoX.O.        ",
"        .+O..XXoX.OXO.O.        ",
"       .+O.Oo...oX.O.OX.        ",
"       .+O.OX.....O.OXX.        ",
"       .+OO.OooXXO.XXoX.        ",
"       .++OO.OOO..XooXO.        ",
"       .+++OO...XXooXXO.        ",
"        .++OOOXXooXXXO.         ",
"         .++OOXXXXXXOO.         ",
"        @.+++OOXXOOOO.#         ",
"       $##..++OOOOO..##@        ",
"       #   #.@@@...@   #        ",
"             #@####@@           ",
"              #@   #$@          ",
"              #$    #@          ",
"              #$     @          ",
"           @###@                ",
"          @#@##@#               ",
"         @#@#  #@               ",
"         ###   #$               ",
"               #$               ",
"               #$ #             ",
"             # #@#              ",
"              ##@#              "
};
