/* XPM */
static char *_c5d740a57ec4f83f9dfa2fab9939e8cZ9IUej4vIEHkdcy6[] = {
/* columns rows colors chars-per-pixel */
"32 32 20 1 ",
"  c None",
". c #725B42",
"X c #846748",
"o c #97724B",
"O c #AC7F50",
"+ c #946F48",
"@ c #845F38",
"# c #A7825B",
"$ c #947758",
"% c #715435",
"& c #826B52",
"* c #5F482F",
"= c #BC8F60",
"- c #996C3D",
"; c #A9845D",
": c #BE9162",
"> c #BF9263",
", c #BD9061",
"< c #A97C4D",
"1 c white",
/* pixels */
" .............................. ",
".XoOOOOOOOOOOOOOOOOOOOOOOOOOOOO.",
".Xooooooooooooooooooooooooooooo.",
".Xo..........................Xo.",
".Xo.+@@@@@@@@@@@@@@@@@@@@@@@.Xo.",
".Xo.#oooooooooooooooooooooo@.Xo.",
".Xo.$XXXXXXXXXXXXXXXXXXXXXX%.Xo.",
".Xo.&......................*.Xo.",
".Xo.#ooooooooooo.Xooooooooo@.Xo.",
".Xo.=OOOOOOOOOOo.XoOOOOOOOO-.Xo.",
".Xo.#ooooooooooo.Xooooooooo@.Xo.",
".Xo.$XXXXXXXXXXX.XXXXXXXXXX%.Xo.",
".Xo.&......................*.Xo.",
".Xo.#oooooooooooooooooooooo@.Xo.",
".Xo.=OOOOOOOOOOOOOOOOOOOOOO@.Xo.",
".Xo.#oooooooooooooooooooooo@.Xo.",
".Xo.#oooooooooooooooooooooo@.Xo.",
".Xo.#oooooooooooooooooooooo@.Xo.",
".Xo.$XXXXXXXXXXXXXXXXXXXXXX%.Xo.",
".Xo.&......................*.Xo.",
".Xo.#oooooooooooooooooooooo@.Xo.",
".Xo.#OOOOOOOOOOOOOOOOOOOOOO-.Xo.",
".Xo.#oooooooooooooooooooooo@.Xo.",
".Xo.#oooooooooooooooooooooo@.Xo.",
".Xo.$XXXXXXXXXXXXXXXXXXXXXX%.Xo.",
".Xo.&......................*.Xo.",
".Xo.;oooooooooooooooo.Xoooo@.Xo.",
".Xo.:>===,,,,==,,===#&$#===<.Xo.",
".Xo..........................Xo.",
".Xooooooooooooooooooooooooooooo.",
".XXXXXXXXXXXXXXXXXXXXXXXXXXXXXX.",
" .............................. "
};
